<?xml version="1.0" encoding="utf-8"?>
<!-- Generator: Adobe Illustrator 16.0.0, SVG Export Plug-In . SVG Version: 6.00 Build 0)  -->
<!DOCTYPE svg PUBLIC "-//W3C//DTD SVG 1.1//EN" "http://www.w3.org/Graphics/SVG/1.1/DTD/svg11.dtd">
<svg version="1.1" id="Layer_1" xmlns="http://www.w3.org/2000/svg" xmlns:xlink="http://www.w3.org/1999/xlink" x="0px" y="0px"
	 width="160px" height="25px" viewBox="0 0 160 25" enable-background="new 0 0 160 25" xml:space="preserve">
<g id="Layer_1_1_">
	<g id="Layer_4">
	</g>
	<g>
		<g>
			<g>
				<defs>
					<path id="SVGID_1_" d="M63.983,19.85c-0.037,0-13.711-0.002-15.687-0.003c-0.831-0.416-1.509-1.083-1.932-1.903V2.625
						c-0.053-0.726-0.321-1.334-0.804-1.829c-0.485-0.493-1.08-0.738-1.787-0.738c-0.706,0.026-1.296,0.271-1.767,0.738
						c-0.47,0.466-0.746,1.024-0.824,1.672v15.514c0,0.907,0.176,1.776,0.53,2.606c0.354,0.83,0.837,1.556,1.453,2.177
						c0.615,0.623,1.327,1.121,2.14,1.498c0.811,0.375,1.675,0.563,2.591,0.563h16.362c0.68-0.104,1.236-0.395,1.667-0.876
						c0.432-0.478,0.649-1.029,0.649-1.649c-0.026-0.701-0.293-1.285-0.805-1.751C65.258,20.081,64.662,19.85,63.983,19.85z
						 M36.41,9.098c-0.745-0.842-1.635-1.536-2.668-2.081c-1.035-0.545-2.14-0.881-3.317-1.011
						c-0.184-0.025-0.361-0.039-0.531-0.039h-0.568c-1.962,0-3.717,0.519-5.261,1.556c-1.545,1.037-2.696,2.398-3.455,4.083
						c-0.262,0.596-0.465,1.206-0.609,1.828c-0.144,0.622-0.216,1.271-0.216,1.943s0.071,1.321,0.216,1.942
						c0.144,0.622,0.347,1.231,0.609,1.829c0.759,1.658,1.91,3.014,3.455,4.062c1.543,1.051,3.298,1.574,5.261,1.574
						c0.758,0,1.478-0.078,2.159-0.231c0.653-0.156,1.295-0.376,1.923-0.662c0.104-0.052,0.209-0.109,0.314-0.175
						c0.105-0.063,0.223-0.123,0.354-0.175c0.549,0.829,1.282,1.243,2.199,1.243c0.653,0,1.242-0.244,1.766-0.739
						c0.524-0.488,0.786-1.087,0.786-1.787v-6.881c0-1.192-0.216-2.327-0.648-3.402C37.747,10.899,37.158,9.939,36.41,9.098z
						 M33.329,17.108c-0.235,0.531-0.549,0.991-0.942,1.381c-0.393,0.388-0.858,0.693-1.394,0.913
						c-0.537,0.221-1.107,0.331-1.707,0.331c-0.55,0-1.087-0.118-1.609-0.351c-0.525-0.232-0.988-0.546-1.394-0.935
						c-0.406-0.388-0.733-0.847-0.982-1.381c-0.249-0.529-0.373-1.093-0.373-1.689c0-0.569,0.118-1.122,0.353-1.652
						c0.235-0.53,0.556-0.998,0.962-1.399c0.405-0.402,0.871-0.719,1.395-0.953c0.523-0.233,1.072-0.351,1.649-0.351
						c0.575,0,1.132,0.117,1.668,0.351c0.537,0.233,1.007,0.551,1.412,0.953c0.406,0.401,0.727,0.869,0.963,1.399
						s0.354,1.083,0.354,1.652C33.683,16,33.565,16.574,33.329,17.108z M15.467,11.937c-0.706-0.687-1.511-1.226-2.414-1.614
						C12.15,9.935,11.213,9.74,10.246,9.74H7.577c-0.629,0-1.158-0.215-1.59-0.642C5.554,8.67,5.324,8.159,5.299,7.562
						c0.026-0.673,0.254-1.237,0.688-1.69c0.432-0.454,0.962-0.681,1.59-0.681h6.988c0.759,0,1.386-0.246,1.885-0.739
						c0.496-0.492,0.745-1.114,0.745-1.866c-0.053-0.751-0.327-1.38-0.824-1.886c-0.499-0.506-1.101-0.758-1.807-0.758H7.577
						c-1.047,0-2.029,0.213-2.945,0.641C3.716,1.01,2.912,1.574,2.218,2.274c-0.693,0.7-1.237,1.504-1.63,2.411
						C0.194,5.592,0,6.525,0,7.485c0,1.063,0.209,2.048,0.628,2.956c0.419,0.908,0.975,1.691,1.669,2.352
						c0.693,0.661,1.498,1.188,2.414,1.576c0.916,0.387,1.872,0.596,2.867,0.62h2.708c0.6,0.025,1.132,0.253,1.59,0.681
						c0.458,0.429,0.687,0.966,0.687,1.613c0,0.622-0.235,1.154-0.706,1.594c-0.472,0.442-1.007,0.661-1.609,0.661h-6.99
						c-0.759,0-1.394,0.26-1.904,0.776c-0.511,0.521-0.766,1.129-0.766,1.829c0,0.752,0.249,1.38,0.747,1.885
						c0.497,0.507,1.139,0.759,1.923,0.759h6.989c1.047-0.025,2.028-0.238,2.944-0.642c0.916-0.4,1.714-0.94,2.395-1.613
						c0.68-0.675,1.217-1.465,1.609-2.372c0.393-0.906,0.589-1.866,0.589-2.877c0-1.036-0.209-2.016-0.628-2.937
						C16.737,13.427,16.174,12.623,15.467,11.937z M51.887,16.525v-2.878c-2.264,1.372-3.271,0.181-3.271,0.181v2.697
						c0,0.897,0.732,1.622,1.636,1.622C51.154,18.147,51.887,17.423,51.887,16.525z M66.134,0.981l-3.575-1.005
						c-0.177-0.049-0.344-0.032-0.501,0.054c-0.158,0.086-0.26,0.216-0.312,0.391c-0.051,0.174-0.038,0.391,0.049,0.544l0.608,1.087
						L51.575,8.705c0,0-1.13,0.619-1.771,0.971l-0.609,0.333c-0.642,0.352-0.878,1.147-0.525,1.778
						c0.352,0.632,1.158,0.858,1.8,0.507l0.609-0.334c0.642-0.352,1.772-0.97,1.772-0.97l10.826-6.652l0.608,1.088
						c0.085,0.154,0.263,0.281,0.439,0.332c0.177,0.049,0.344,0.031,0.5-0.055c0.156-0.085,0.26-0.215,0.312-0.391l1.043-3.533
						c0.052-0.175,0.035-0.339-0.051-0.493C66.442,1.131,66.311,1.03,66.134,0.981z M85.152,8.825
						c-0.879-0.868-1.891-1.562-3.041-2.081c-1.152-0.518-2.355-0.777-3.611-0.777c-1.283,0-2.5,0.258-3.652,0.777
						s-2.159,1.211-3.021,2.081c-0.863,0.869-1.552,1.873-2.062,3.013c-0.51,1.143-0.766,2.321-0.766,3.541
						c0,1.245,0.254,2.449,0.766,3.615c0.51,1.167,1.204,2.184,2.081,3.053c0.877,0.868,1.891,1.556,3.042,2.061
						c1.152,0.505,2.355,0.731,3.611,0.681c0.967-0.025,1.885-0.148,2.75-0.367c0.861-0.221,1.646-0.617,2.354-1.188
						c0.391-0.414,0.621-0.868,0.688-1.363c0.064-0.489,0-0.951-0.197-1.378c-0.197-0.429-0.498-0.783-0.904-1.07
						c-0.406-0.284-0.883-0.439-1.432-0.467c-0.289,0-0.543,0.039-0.766,0.117s-0.445,0.168-0.666,0.271
						c-0.225,0.104-0.479,0.193-0.766,0.271c-0.289,0.077-0.643,0.116-1.063,0.116c-1.516,0-2.707-0.739-3.57-2.216h10.441
						c0.76,0.025,1.395-0.157,1.906-0.546c0.51-0.389,0.766-0.92,0.766-1.593c0-1.246-0.264-2.432-0.787-3.558
						S86.029,9.694,85.152,8.825z M74.926,13.2c0.443-0.805,0.963-1.368,1.551-1.691c0.59-0.325,1.262-0.487,2.021-0.487
						c0.734,0,1.4,0.163,2.002,0.487c0.604,0.323,1.127,0.886,1.57,1.691H74.926z M63.881,16.525V7.117
						c-0.614-0.336-1.09-0.85-1.09-0.85s-0.896,0.592-2.18,1.448v8.812c0,0.897,0.733,1.622,1.636,1.622
						S63.881,17.423,63.881,16.525z M57.884,16.525V9.537c-1.113,0.748-2.262,1.525-3.272,2.22v4.771
						c0,0.896,0.733,1.622,1.637,1.622C57.152,18.149,57.884,17.423,57.884,16.525z M105.703,16.698
						c-0.287-0.62-0.686-1.211-1.195-1.77c-0.51-0.556-1.111-1.003-1.805-1.34s-1.447-0.506-2.258-0.506h-4.438
						c-0.314,0-0.582-0.099-0.805-0.291c-0.223-0.195-0.336-0.475-0.336-0.838c0-0.336,0.113-0.597,0.334-0.777
						c0.223-0.181,0.492-0.271,0.805-0.271h6.754c0.627,0,1.197-0.254,1.707-0.758c0.512-0.505,0.768-1.095,0.768-1.77
						c0-0.595-0.236-1.159-0.709-1.691c-0.471-0.53-1.059-0.797-1.766-0.797h-6.986c-0.838,0.026-1.611,0.201-2.316,0.525
						c-0.709,0.325-1.324,0.758-1.846,1.302c-0.525,0.544-0.938,1.18-1.238,1.905c-0.301,0.726-0.449,1.477-0.449,2.255
						c0,0.778,0.143,1.502,0.432,2.178c0.287,0.675,0.688,1.297,1.195,1.865c0.512,0.569,1.113,1.018,1.807,1.341
						c0.693,0.325,1.434,0.486,2.219,0.486h4.318c0.705,0,1.061,0.351,1.061,1.049c0,0.622-0.355,0.935-1.061,0.935H92.67
						c-0.682,0.025-1.256,0.305-1.727,0.837c-0.471,0.528-0.707,1.119-0.707,1.768c0,0.7,0.25,1.283,0.748,1.75
						c0.494,0.468,1.084,0.7,1.764,0.7h7.225c0.916,0,1.74-0.149,2.473-0.447s1.373-0.704,1.924-1.225
						c0.551-0.52,0.988-1.153,1.314-1.904c0.328-0.753,0.479-1.557,0.453-2.412C106.137,18.021,105.992,17.319,105.703,16.698z"/>
				</defs>
				<clipPath id="SVGID_2_">
					<use xlink:href="#SVGID_1_"  overflow="visible"/>
				</clipPath>
				<rect x="47.285" y="-1.18" clip-path="url(#SVGID_2_)" fill="#01A8FE" width="19.808" height="19.923"/>
			</g>
		</g>
		<g>
			<g>
				<defs>
					<path id="SVGID_3_" d="M63.983,19.85c-0.037,0-13.711-0.002-15.687-0.003c-0.831-0.416-1.509-1.083-1.932-1.903V2.625
						c-0.053-0.726-0.321-1.334-0.804-1.829c-0.485-0.493-1.08-0.738-1.787-0.738c-0.706,0.026-1.296,0.271-1.767,0.738
						c-0.47,0.466-0.746,1.024-0.824,1.672v15.514c0,0.907,0.176,1.776,0.53,2.606c0.354,0.83,0.837,1.556,1.453,2.177
						c0.615,0.623,1.327,1.121,2.14,1.498c0.811,0.375,1.675,0.563,2.591,0.563h16.362c0.68-0.104,1.236-0.395,1.667-0.876
						c0.432-0.478,0.649-1.029,0.649-1.649c-0.026-0.701-0.293-1.285-0.805-1.751C65.258,20.081,64.662,19.85,63.983,19.85z
						 M36.41,9.098c-0.745-0.842-1.635-1.536-2.668-2.081c-1.035-0.545-2.14-0.881-3.317-1.011
						c-0.184-0.025-0.361-0.039-0.531-0.039h-0.568c-1.962,0-3.717,0.519-5.261,1.556c-1.545,1.037-2.696,2.398-3.455,4.083
						c-0.262,0.596-0.465,1.206-0.609,1.828c-0.144,0.622-0.216,1.271-0.216,1.943s0.071,1.321,0.216,1.942
						c0.144,0.622,0.347,1.231,0.609,1.829c0.759,1.658,1.91,3.014,3.455,4.062c1.543,1.051,3.298,1.574,5.261,1.574
						c0.758,0,1.478-0.078,2.159-0.231c0.653-0.156,1.295-0.376,1.923-0.662c0.104-0.052,0.209-0.109,0.314-0.175
						c0.105-0.063,0.223-0.123,0.354-0.175c0.549,0.829,1.282,1.243,2.199,1.243c0.653,0,1.242-0.244,1.766-0.739
						c0.524-0.488,0.786-1.087,0.786-1.787v-6.881c0-1.192-0.216-2.327-0.648-3.402C37.747,10.899,37.158,9.939,36.41,9.098z
						 M33.329,17.108c-0.235,0.531-0.549,0.991-0.942,1.381c-0.393,0.388-0.858,0.693-1.394,0.913
						c-0.537,0.221-1.107,0.331-1.707,0.331c-0.55,0-1.087-0.118-1.609-0.351c-0.525-0.232-0.988-0.546-1.394-0.935
						c-0.406-0.388-0.733-0.847-0.982-1.381c-0.249-0.529-0.373-1.093-0.373-1.689c0-0.569,0.118-1.122,0.353-1.652
						c0.235-0.53,0.556-0.998,0.962-1.399c0.405-0.402,0.871-0.719,1.395-0.953c0.523-0.233,1.072-0.351,1.649-0.351
						c0.575,0,1.132,0.117,1.668,0.351c0.537,0.233,1.007,0.551,1.412,0.953c0.406,0.401,0.727,0.869,0.963,1.399
						s0.354,1.083,0.354,1.652C33.683,16,33.565,16.574,33.329,17.108z M15.467,11.937c-0.706-0.687-1.511-1.226-2.414-1.614
						C12.15,9.935,11.213,9.74,10.246,9.74H7.577c-0.629,0-1.158-0.215-1.59-0.642C5.554,8.67,5.324,8.159,5.299,7.562
						c0.026-0.673,0.254-1.237,0.688-1.69c0.432-0.454,0.962-0.681,1.59-0.681h6.988c0.759,0,1.386-0.246,1.885-0.739
						c0.496-0.492,0.745-1.114,0.745-1.866c-0.053-0.751-0.327-1.38-0.824-1.886c-0.499-0.506-1.101-0.758-1.807-0.758H7.577
						c-1.047,0-2.029,0.213-2.945,0.641C3.716,1.01,2.912,1.574,2.218,2.274c-0.693,0.7-1.237,1.504-1.63,2.411
						C0.194,5.592,0,6.525,0,7.485c0,1.063,0.209,2.048,0.628,2.956c0.419,0.908,0.975,1.691,1.669,2.352
						c0.693,0.661,1.498,1.188,2.414,1.576c0.916,0.387,1.872,0.596,2.867,0.62h2.708c0.6,0.025,1.132,0.253,1.59,0.681
						c0.458,0.429,0.687,0.966,0.687,1.613c0,0.622-0.235,1.154-0.706,1.594c-0.472,0.442-1.007,0.661-1.609,0.661h-6.99
						c-0.759,0-1.394,0.26-1.904,0.776c-0.511,0.521-0.766,1.129-0.766,1.829c0,0.752,0.249,1.38,0.747,1.885
						c0.497,0.507,1.139,0.759,1.923,0.759h6.989c1.047-0.025,2.028-0.238,2.944-0.642c0.916-0.4,1.714-0.94,2.395-1.613
						c0.68-0.675,1.217-1.465,1.609-2.372c0.393-0.906,0.589-1.866,0.589-2.877c0-1.036-0.209-2.016-0.628-2.937
						C16.737,13.427,16.174,12.623,15.467,11.937z M51.887,16.525v-2.878c-2.264,1.372-3.271,0.181-3.271,0.181v2.697
						c0,0.897,0.732,1.622,1.636,1.622C51.154,18.147,51.887,17.423,51.887,16.525z M66.134,0.981l-3.575-1.005
						c-0.177-0.049-0.344-0.032-0.501,0.054c-0.158,0.086-0.26,0.216-0.312,0.391c-0.051,0.174-0.038,0.391,0.049,0.544l0.608,1.087
						L51.575,8.705c0,0-1.13,0.619-1.771,0.971l-0.609,0.333c-0.642,0.352-0.878,1.147-0.525,1.778
						c0.352,0.632,1.158,0.858,1.8,0.507l0.609-0.334c0.642-0.352,1.772-0.97,1.772-0.97l10.826-6.652l0.608,1.088
						c0.085,0.154,0.263,0.281,0.439,0.332c0.177,0.049,0.344,0.031,0.5-0.055c0.156-0.085,0.26-0.215,0.312-0.391l1.043-3.533
						c0.052-0.175,0.035-0.339-0.051-0.493C66.442,1.131,66.311,1.03,66.134,0.981z M85.152,8.825
						c-0.879-0.868-1.891-1.562-3.041-2.081c-1.152-0.518-2.355-0.777-3.611-0.777c-1.283,0-2.5,0.258-3.652,0.777
						s-2.159,1.211-3.021,2.081c-0.863,0.869-1.552,1.873-2.062,3.013c-0.51,1.143-0.766,2.321-0.766,3.541
						c0,1.245,0.254,2.449,0.766,3.615c0.51,1.167,1.204,2.184,2.081,3.053c0.877,0.868,1.891,1.556,3.042,2.061
						c1.152,0.505,2.355,0.731,3.611,0.681c0.967-0.025,1.885-0.148,2.75-0.367c0.861-0.221,1.646-0.617,2.354-1.188
						c0.391-0.414,0.621-0.868,0.688-1.363c0.064-0.489,0-0.951-0.197-1.378c-0.197-0.429-0.498-0.783-0.904-1.07
						c-0.406-0.284-0.883-0.439-1.432-0.467c-0.289,0-0.543,0.039-0.766,0.117s-0.445,0.168-0.666,0.271
						c-0.225,0.104-0.479,0.193-0.766,0.271c-0.289,0.077-0.643,0.116-1.063,0.116c-1.516,0-2.707-0.739-3.57-2.216h10.441
						c0.76,0.025,1.395-0.157,1.906-0.546c0.51-0.389,0.766-0.92,0.766-1.593c0-1.246-0.264-2.432-0.787-3.558
						S86.029,9.694,85.152,8.825z M74.926,13.2c0.443-0.805,0.963-1.368,1.551-1.691c0.59-0.325,1.262-0.487,2.021-0.487
						c0.734,0,1.4,0.163,2.002,0.487c0.604,0.323,1.127,0.886,1.57,1.691H74.926z M63.881,16.525V7.117
						c-0.614-0.336-1.09-0.85-1.09-0.85s-0.896,0.592-2.18,1.448v8.812c0,0.897,0.733,1.622,1.636,1.622
						S63.881,17.423,63.881,16.525z M57.884,16.525V9.537c-1.113,0.748-2.262,1.525-3.272,2.22v4.771
						c0,0.896,0.733,1.622,1.637,1.622C57.152,18.149,57.884,17.423,57.884,16.525z M105.703,16.698
						c-0.287-0.62-0.686-1.211-1.195-1.77c-0.51-0.556-1.111-1.003-1.805-1.34s-1.447-0.506-2.258-0.506h-4.438
						c-0.314,0-0.582-0.099-0.805-0.291c-0.223-0.195-0.336-0.475-0.336-0.838c0-0.336,0.113-0.597,0.334-0.777
						c0.223-0.181,0.492-0.271,0.805-0.271h6.754c0.627,0,1.197-0.254,1.707-0.758c0.512-0.505,0.768-1.095,0.768-1.77
						c0-0.595-0.236-1.159-0.709-1.691c-0.471-0.53-1.059-0.797-1.766-0.797h-6.986c-0.838,0.026-1.611,0.201-2.316,0.525
						c-0.709,0.325-1.324,0.758-1.846,1.302c-0.525,0.544-0.938,1.18-1.238,1.905c-0.301,0.726-0.449,1.477-0.449,2.255
						c0,0.778,0.143,1.502,0.432,2.178c0.287,0.675,0.688,1.297,1.195,1.865c0.512,0.569,1.113,1.018,1.807,1.341
						c0.693,0.325,1.434,0.486,2.219,0.486h4.318c0.705,0,1.061,0.351,1.061,1.049c0,0.622-0.355,0.935-1.061,0.935H92.67
						c-0.682,0.025-1.256,0.305-1.727,0.837c-0.471,0.528-0.707,1.119-0.707,1.768c0,0.7,0.25,1.283,0.748,1.75
						c0.494,0.468,1.084,0.7,1.764,0.7h7.225c0.916,0,1.74-0.149,2.473-0.447s1.373-0.704,1.924-1.225
						c0.551-0.52,0.988-1.153,1.314-1.904c0.328-0.753,0.479-1.557,0.453-2.412C106.137,18.021,105.992,17.319,105.703,16.698z"/>
				</defs>
				<clipPath id="SVGID_4_">
					<use xlink:href="#SVGID_3_"  overflow="visible"/>
				</clipPath>
				<polygon clip-path="url(#SVGID_4_)" fill="#01A8FE" points="46.433,-2.123 46.834,15.381 46.834,17.744 47.285,18.949 
					48.303,19.336 67.092,19.636 67.958,21.829 67.742,24.825 60.61,26.816 -16.06,32.405 -10.991,-9.212 				"/>
			</g>
		</g>
		<g>
			<g>
				<defs>
					<path id="SVGID_5_" d="M63.983,19.85c-0.037,0-13.711-0.002-15.687-0.003c-0.831-0.416-1.509-1.083-1.932-1.903V2.625
						c-0.053-0.726-0.321-1.334-0.804-1.829c-0.485-0.493-1.08-0.738-1.787-0.738c-0.706,0.026-1.296,0.271-1.767,0.738
						c-0.47,0.466-0.746,1.024-0.824,1.672v15.514c0,0.907,0.176,1.776,0.53,2.606c0.354,0.83,0.837,1.556,1.453,2.177
						c0.615,0.623,1.327,1.121,2.14,1.498c0.811,0.375,1.675,0.563,2.591,0.563h16.362c0.68-0.104,1.236-0.395,1.667-0.876
						c0.432-0.478,0.649-1.029,0.649-1.649c-0.026-0.701-0.293-1.285-0.805-1.751C65.258,20.081,64.662,19.85,63.983,19.85z
						 M36.41,9.098c-0.745-0.842-1.635-1.536-2.668-2.081c-1.035-0.545-2.14-0.881-3.317-1.011
						c-0.184-0.025-0.361-0.039-0.531-0.039h-0.568c-1.962,0-3.717,0.519-5.261,1.556c-1.545,1.037-2.696,2.398-3.455,4.083
						c-0.262,0.596-0.465,1.206-0.609,1.828c-0.144,0.622-0.216,1.271-0.216,1.943s0.071,1.321,0.216,1.942
						c0.144,0.622,0.347,1.231,0.609,1.829c0.759,1.658,1.91,3.014,3.455,4.062c1.543,1.051,3.298,1.574,5.261,1.574
						c0.758,0,1.478-0.078,2.159-0.231c0.653-0.156,1.295-0.376,1.923-0.662c0.104-0.052,0.209-0.109,0.314-0.175
						c0.105-0.063,0.223-0.123,0.354-0.175c0.549,0.829,1.282,1.243,2.199,1.243c0.653,0,1.242-0.244,1.766-0.739
						c0.524-0.488,0.786-1.087,0.786-1.787v-6.881c0-1.192-0.216-2.327-0.648-3.402C37.747,10.899,37.158,9.939,36.41,9.098z
						 M33.329,17.108c-0.235,0.531-0.549,0.991-0.942,1.381c-0.393,0.388-0.858,0.693-1.394,0.913
						c-0.537,0.221-1.107,0.331-1.707,0.331c-0.55,0-1.087-0.118-1.609-0.351c-0.525-0.232-0.988-0.546-1.394-0.935
						c-0.406-0.388-0.733-0.847-0.982-1.381c-0.249-0.529-0.373-1.093-0.373-1.689c0-0.569,0.118-1.122,0.353-1.652
						c0.235-0.53,0.556-0.998,0.962-1.399c0.405-0.402,0.871-0.719,1.395-0.953c0.523-0.233,1.072-0.351,1.649-0.351
						c0.575,0,1.132,0.117,1.668,0.351c0.537,0.233,1.007,0.551,1.412,0.953c0.406,0.401,0.727,0.869,0.963,1.399
						s0.354,1.083,0.354,1.652C33.683,16,33.565,16.574,33.329,17.108z M15.467,11.937c-0.706-0.687-1.511-1.226-2.414-1.614
						C12.15,9.935,11.213,9.74,10.246,9.74H7.577c-0.629,0-1.158-0.215-1.59-0.642C5.554,8.67,5.324,8.159,5.299,7.562
						c0.026-0.673,0.254-1.237,0.688-1.69c0.432-0.454,0.962-0.681,1.59-0.681h6.988c0.759,0,1.386-0.246,1.885-0.739
						c0.496-0.492,0.745-1.114,0.745-1.866c-0.053-0.751-0.327-1.38-0.824-1.886c-0.499-0.506-1.101-0.758-1.807-0.758H7.577
						c-1.047,0-2.029,0.213-2.945,0.641C3.716,1.01,2.912,1.574,2.218,2.274c-0.693,0.7-1.237,1.504-1.63,2.411
						C0.194,5.592,0,6.525,0,7.485c0,1.063,0.209,2.048,0.628,2.956c0.419,0.908,0.975,1.691,1.669,2.352
						c0.693,0.661,1.498,1.188,2.414,1.576c0.916,0.387,1.872,0.596,2.867,0.62h2.708c0.6,0.025,1.132,0.253,1.59,0.681
						c0.458,0.429,0.687,0.966,0.687,1.613c0,0.622-0.235,1.154-0.706,1.594c-0.472,0.442-1.007,0.661-1.609,0.661h-6.99
						c-0.759,0-1.394,0.26-1.904,0.776c-0.511,0.521-0.766,1.129-0.766,1.829c0,0.752,0.249,1.38,0.747,1.885
						c0.497,0.507,1.139,0.759,1.923,0.759h6.989c1.047-0.025,2.028-0.238,2.944-0.642c0.916-0.4,1.714-0.94,2.395-1.613
						c0.68-0.675,1.217-1.465,1.609-2.372c0.393-0.906,0.589-1.866,0.589-2.877c0-1.036-0.209-2.016-0.628-2.937
						C16.737,13.427,16.174,12.623,15.467,11.937z M51.887,16.525v-2.878c-2.264,1.372-3.271,0.181-3.271,0.181v2.697
						c0,0.897,0.732,1.622,1.636,1.622C51.154,18.147,51.887,17.423,51.887,16.525z M66.134,0.981l-3.575-1.005
						c-0.177-0.049-0.344-0.032-0.501,0.054c-0.158,0.086-0.26,0.216-0.312,0.391c-0.051,0.174-0.038,0.391,0.049,0.544l0.608,1.087
						L51.575,8.705c0,0-1.13,0.619-1.771,0.971l-0.609,0.333c-0.642,0.352-0.878,1.147-0.525,1.778
						c0.352,0.632,1.158,0.858,1.8,0.507l0.609-0.334c0.642-0.352,1.772-0.97,1.772-0.97l10.826-6.652l0.608,1.088
						c0.085,0.154,0.263,0.281,0.439,0.332c0.177,0.049,0.344,0.031,0.5-0.055c0.156-0.085,0.26-0.215,0.312-0.391l1.043-3.533
						c0.052-0.175,0.035-0.339-0.051-0.493C66.442,1.131,66.311,1.03,66.134,0.981z M85.152,8.825
						c-0.879-0.868-1.891-1.562-3.041-2.081c-1.152-0.518-2.355-0.777-3.611-0.777c-1.283,0-2.5,0.258-3.652,0.777
						s-2.159,1.211-3.021,2.081c-0.863,0.869-1.552,1.873-2.062,3.013c-0.51,1.143-0.766,2.321-0.766,3.541
						c0,1.245,0.254,2.449,0.766,3.615c0.51,1.167,1.204,2.184,2.081,3.053c0.877,0.868,1.891,1.556,3.042,2.061
						c1.152,0.505,2.355,0.731,3.611,0.681c0.967-0.025,1.885-0.148,2.75-0.367c0.861-0.221,1.646-0.617,2.354-1.188
						c0.391-0.414,0.621-0.868,0.688-1.363c0.064-0.489,0-0.951-0.197-1.378c-0.197-0.429-0.498-0.783-0.904-1.07
						c-0.406-0.284-0.883-0.439-1.432-0.467c-0.289,0-0.543,0.039-0.766,0.117s-0.445,0.168-0.666,0.271
						c-0.225,0.104-0.479,0.193-0.766,0.271c-0.289,0.077-0.643,0.116-1.063,0.116c-1.516,0-2.707-0.739-3.57-2.216h10.441
						c0.76,0.025,1.395-0.157,1.906-0.546c0.51-0.389,0.766-0.92,0.766-1.593c0-1.246-0.264-2.432-0.787-3.558
						S86.029,9.694,85.152,8.825z M74.926,13.2c0.443-0.805,0.963-1.368,1.551-1.691c0.59-0.325,1.262-0.487,2.021-0.487
						c0.734,0,1.4,0.163,2.002,0.487c0.604,0.323,1.127,0.886,1.57,1.691H74.926z M63.881,16.525V7.117
						c-0.614-0.336-1.09-0.85-1.09-0.85s-0.896,0.592-2.18,1.448v8.812c0,0.897,0.733,1.622,1.636,1.622
						S63.881,17.423,63.881,16.525z M57.884,16.525V9.537c-1.113,0.748-2.262,1.525-3.272,2.22v4.771
						c0,0.896,0.733,1.622,1.637,1.622C57.152,18.149,57.884,17.423,57.884,16.525z M105.703,16.698
						c-0.287-0.62-0.686-1.211-1.195-1.77c-0.51-0.556-1.111-1.003-1.805-1.34s-1.447-0.506-2.258-0.506h-4.438
						c-0.314,0-0.582-0.099-0.805-0.291c-0.223-0.195-0.336-0.475-0.336-0.838c0-0.336,0.113-0.597,0.334-0.777
						c0.223-0.181,0.492-0.271,0.805-0.271h6.754c0.627,0,1.197-0.254,1.707-0.758c0.512-0.505,0.768-1.095,0.768-1.77
						c0-0.595-0.236-1.159-0.709-1.691c-0.471-0.53-1.059-0.797-1.766-0.797h-6.986c-0.838,0.026-1.611,0.201-2.316,0.525
						c-0.709,0.325-1.324,0.758-1.846,1.302c-0.525,0.544-0.938,1.18-1.238,1.905c-0.301,0.726-0.449,1.477-0.449,2.255
						c0,0.778,0.143,1.502,0.432,2.178c0.287,0.675,0.688,1.297,1.195,1.865c0.512,0.569,1.113,1.018,1.807,1.341
						c0.693,0.325,1.434,0.486,2.219,0.486h4.318c0.705,0,1.061,0.351,1.061,1.049c0,0.622-0.355,0.935-1.061,0.935H92.67
						c-0.682,0.025-1.256,0.305-1.727,0.837c-0.471,0.528-0.707,1.119-0.707,1.768c0,0.7,0.25,1.283,0.748,1.75
						c0.494,0.468,1.084,0.7,1.764,0.7h7.225c0.916,0,1.74-0.149,2.473-0.447s1.373-0.704,1.924-1.225
						c0.551-0.52,0.988-1.153,1.314-1.904c0.328-0.753,0.479-1.557,0.453-2.412C106.137,18.021,105.992,17.319,105.703,16.698z"/>
				</defs>
				<clipPath id="SVGID_6_">
					<use xlink:href="#SVGID_5_"  overflow="visible"/>
				</clipPath>
				<polygon clip-path="url(#SVGID_6_)" fill="#01A8FE" points="68.491,-1.18 68.491,10.106 67.958,16.184 68.491,21.916 
					71.542,25.929 89.922,27.477 105.121,28.737 107.021,22.146 107.654,10.221 105.697,2.54 				"/>
			</g>
		</g>
	</g>
</g>
<g id="Layer_2">
	<path fill="#01A8FE" d="M126.904,5.752c-0.496-1.153-1.178-2.158-2.041-3.014c-0.863-0.855-1.879-1.529-3.041-2.021
		c-1.166-0.491-2.402-0.739-3.711-0.739h-6.869c-0.734,0-1.355,0.253-1.865,0.758c-0.512,0.505-0.766,1.122-0.766,1.848v19.714
		c0,0.727,0.254,1.342,0.766,1.848c0.51,0.506,1.131,0.758,1.865,0.758c0.732,0,1.354-0.252,1.863-0.758
		c0.512-0.506,0.768-1.121,0.768-1.848v-3.423h4.24c1.309,0,2.545-0.245,3.709-0.737c1.164-0.493,2.18-1.167,3.043-2.022
		s1.543-1.859,2.041-3.014c0.496-1.153,0.748-2.379,0.748-3.674C127.652,8.132,127.4,6.907,126.904,5.752z M122.055,11.08
		c-0.221,0.505-0.529,0.952-0.924,1.341c-0.391,0.39-0.85,0.694-1.373,0.914c-0.523,0.222-1.07,0.331-1.648,0.331h-4.238V5.19h4.238
		c0.576,0,1.125,0.11,1.648,0.33c0.525,0.22,0.984,0.525,1.373,0.914c0.395,0.389,0.703,0.842,0.924,1.361
		c0.223,0.52,0.336,1.063,0.336,1.633C122.391,10.024,122.277,10.575,122.055,11.08z"/>
	<path fill="#01A8FE" d="M139.133,6.083c-0.172,0-0.359,0-0.568,0c-1.965,0-3.717,0.519-5.262,1.555
		c-1.543,1.037-2.695,2.398-3.453,4.083c-0.264,0.597-0.467,1.206-0.607,1.827c-0.146,0.622-0.217,1.271-0.217,1.944
		c0,0.672,0.07,1.32,0.217,1.942c0.143,0.622,0.344,1.231,0.607,1.828c0.758,1.659,1.91,3.014,3.453,4.063
		c1.545,1.051,3.297,1.574,5.262,1.574c0.76,0,1.479-0.078,2.16-0.232c0.652-0.156,1.293-0.375,1.92-0.662
		c0.105-0.052,0.211-0.109,0.316-0.175c0.104-0.064,0.223-0.123,0.354-0.174c0.549,0.829,1.281,1.243,2.199,1.243
		c0.654,0,1.242-0.246,1.768-0.739c0.523-0.489,0.785-1.087,0.785-1.787v-6.882c0-1.192-0.217-2.326-0.648-3.402
		c-0.432-1.076-1.021-2.035-1.766-2.878c-0.748-0.842-1.637-1.536-2.67-2.08s-2.139-0.881-3.318-1.012
		C139.48,6.096,139.303,6.083,139.133,6.083z M136.916,19.498c-0.525-0.233-0.99-0.545-1.395-0.935
		c-0.406-0.388-0.734-0.848-0.982-1.381c-0.248-0.529-0.375-1.094-0.375-1.689c0-0.57,0.119-1.121,0.357-1.652
		c0.232-0.53,0.555-0.998,0.961-1.4c0.404-0.4,0.869-0.718,1.393-0.952c0.525-0.233,1.074-0.35,1.652-0.35
		c0.574,0,1.129,0.116,1.668,0.35c0.535,0.233,1.006,0.551,1.41,0.952c0.406,0.402,0.73,0.87,0.963,1.4
		c0.234,0.531,0.355,1.082,0.355,1.652c0,0.622-0.119,1.199-0.355,1.73c-0.232,0.531-0.549,0.992-0.943,1.381
		c-0.391,0.39-0.854,0.693-1.395,0.912c-0.535,0.223-1.105,0.331-1.705,0.331C137.973,19.848,137.436,19.731,136.916,19.498z"/>
	<path fill="#01A8FE" d="M151.244,0.913c-0.473,0.466-0.744,1.024-0.822,1.671v15.514c0,0.908,0.176,1.777,0.527,2.605
		c0.354,0.829,0.838,1.557,1.451,2.178c0.615,0.623,1.33,1.121,2.143,1.497c0.811,0.375,1.674,0.564,2.59,0.564h0.551
		c0.68-0.104,1.236-0.395,1.668-0.874c0.434-0.479,0.648-1.03,0.648-1.652c-0.025-0.7-0.293-1.284-0.807-1.75
		c-0.508-0.468-1.105-0.699-1.785-0.699c-0.525,0-0.955-0.183-1.295-0.545s-0.51-0.804-0.51-1.322V2.739
		c-0.053-0.726-0.322-1.334-0.805-1.827c-0.482-0.493-1.08-0.739-1.787-0.739C152.305,0.199,151.715,0.444,151.244,0.913z"/>
</g>
</svg>
