<?xml version="1.0" encoding="utf-8"?>
<!-- Generator: Adobe Illustrator 16.0.0, SVG Export Plug-In . SVG Version: 6.00 Build 0)  -->
<!DOCTYPE svg PUBLIC "-//W3C//DTD SVG 1.1//EN" "http://www.w3.org/Graphics/SVG/1.1/DTD/svg11.dtd">
<svg version="1.1" id="Layer_1" xmlns="http://www.w3.org/2000/svg" xmlns:xlink="http://www.w3.org/1999/xlink" x="0px" y="0px"
	 width="193px" height="25px" viewBox="0 0 193 25" enable-background="new 0 0 193 25" xml:space="preserve">
<g>
	<g>
		<path fill="#FFFFFF" d="M51.504,16.619v-2.872c-2.247,1.369-3.248,0.181-3.248,0.181v2.691c0,0.893,0.728,1.616,1.624,1.616
			C50.776,18.235,51.504,17.512,51.504,16.619z M15.354,12.041c-0.701-0.685-1.5-1.222-2.397-1.61
			c-0.896-0.386-1.825-0.581-2.786-0.581H7.521c-0.624,0-1.15-0.214-1.579-0.64C5.514,8.783,5.286,8.272,5.261,7.678
			c0.026-0.672,0.253-1.234,0.682-1.687C6.371,5.54,6.898,5.313,7.521,5.313h6.936c0.754,0,1.377-0.245,1.871-0.736
			c0.492-0.491,0.74-1.111,0.74-1.861c-0.053-0.75-0.325-1.376-0.819-1.881s-1.091-0.756-1.792-0.756H7.521
			c-1.04,0-2.015,0.214-2.923,0.64C3.688,1.144,2.89,1.706,2.202,2.404c-0.688,0.698-1.228,1.5-1.618,2.404
			C0.195,5.714,0,6.645,0,7.601c0,1.06,0.207,2.042,0.624,2.947c0.416,0.906,0.968,1.687,1.656,2.346
			c0.688,0.66,1.487,1.184,2.397,1.57c0.909,0.388,1.858,0.596,2.845,0.621h2.688c0.597,0.026,1.124,0.252,1.578,0.678
			c0.454,0.429,0.682,0.963,0.682,1.609c0,0.621-0.234,1.151-0.701,1.591c-0.468,0.439-1,0.659-1.598,0.659H3.235
			c-0.754,0-1.384,0.258-1.891,0.774c-0.507,0.518-0.76,1.126-0.76,1.823c0,0.751,0.247,1.377,0.741,1.88
			c0.494,0.505,1.13,0.758,1.91,0.758h6.936c1.039-0.027,2.013-0.239,2.922-0.641c0.909-0.4,1.701-0.937,2.377-1.609
			c0.675-0.672,1.208-1.461,1.598-2.365c0.389-0.904,0.584-1.862,0.584-2.87c0-1.033-0.208-2.01-0.624-2.928
			C16.614,13.528,16.055,12.726,15.354,12.041z M57.457,16.619V9.647c-1.104,0.746-2.245,1.521-3.248,2.214v4.757
			c0,0.893,0.728,1.616,1.625,1.616S57.457,17.512,57.457,16.619z M63.511,19.932c-0.037,0-13.61-0.001-15.572-0.003
			c-0.825-0.413-1.498-1.078-1.917-1.899V2.753c-0.053-0.724-0.318-1.331-0.799-1.823c-0.481-0.491-1.072-0.736-1.774-0.736
			c-0.701,0.026-1.285,0.271-1.753,0.736c-0.467,0.465-0.74,1.022-0.817,1.667V18.07c0,0.904,0.175,1.771,0.526,2.598
			c0.351,0.827,0.831,1.552,1.441,2.172c0.61,0.621,1.318,1.118,2.124,1.493c0.805,0.375,1.662,0.562,2.573,0.562h16.241
			c0.675-0.103,1.228-0.393,1.656-0.872c0.429-0.478,0.644-1.027,0.644-1.646c-0.026-0.698-0.291-1.281-0.799-1.747
			C64.777,20.165,64.186,19.932,63.511,19.932z M36.143,9.209c-0.74-0.84-1.624-1.532-2.649-2.074
			c-1.027-0.544-2.125-0.879-3.293-1.009c-0.182-0.025-0.358-0.039-0.526-0.039h-0.565c-1.949,0-3.69,0.517-5.222,1.552
			c-1.534,1.033-2.676,2.391-3.43,4.071c-0.259,0.595-0.461,1.202-0.604,1.822c-0.143,0.621-0.215,1.268-0.215,1.939
			c0,0.671,0.072,1.317,0.215,1.938c0.143,0.622,0.345,1.229,0.604,1.824c0.753,1.654,1.896,3.005,3.43,4.051
			c1.532,1.048,3.273,1.57,5.222,1.57c0.753,0,1.467-0.077,2.143-0.231c0.649-0.157,1.286-0.375,1.909-0.66
			c0.104-0.052,0.207-0.109,0.312-0.175c0.104-0.063,0.221-0.123,0.351-0.174c0.545,0.827,1.273,1.24,2.183,1.24
			c0.649,0,1.233-0.245,1.753-0.736c0.52-0.489,0.779-1.086,0.779-1.784v-6.862c0-1.188-0.214-2.321-0.643-3.393
			C37.468,11.006,36.884,10.049,36.143,9.209z M33.084,17.198c-0.234,0.53-0.545,0.988-0.935,1.377
			c-0.39,0.388-0.852,0.691-1.383,0.91c-0.533,0.221-1.098,0.329-1.695,0.329c-0.546,0-1.079-0.116-1.598-0.349
			c-0.52-0.231-0.98-0.543-1.383-0.931c-0.403-0.388-0.728-0.846-0.974-1.376c-0.247-0.529-0.371-1.093-0.371-1.687
			c0-0.569,0.117-1.119,0.351-1.648c0.234-0.529,0.552-0.995,0.955-1.396c0.402-0.401,0.864-0.718,1.384-0.951
			c0.519-0.232,1.064-0.349,1.637-0.349c0.571,0,1.123,0.115,1.656,0.349c0.532,0.233,1,0.55,1.402,0.951
			c0.402,0.4,0.721,0.866,0.955,1.396c0.234,0.529,0.352,1.079,0.352,1.648C33.436,16.093,33.319,16.667,33.084,17.198z
			 M65.646,1.114l-3.549-1.002c-0.176-0.05-0.341-0.032-0.497,0.054c-0.156,0.086-0.258,0.215-0.31,0.39
			c-0.051,0.173-0.037,0.389,0.049,0.543l0.603,1.084L51.194,8.818c0,0-1.122,0.616-1.759,0.968l-0.604,0.333
			c-0.638,0.351-0.872,1.145-0.521,1.774c0.349,0.629,1.149,0.855,1.787,0.504l0.605-0.333c0.637-0.351,1.759-0.966,1.759-0.966
			l10.748-6.636l0.604,1.085c0.085,0.154,0.261,0.281,0.435,0.331c0.176,0.049,0.342,0.031,0.497-0.055
			c0.155-0.085,0.258-0.215,0.31-0.39l1.036-3.524c0.052-0.174,0.035-0.338-0.05-0.491C65.954,1.265,65.822,1.164,65.646,1.114z
			 M144.575,9.209c-0.739-0.84-1.624-1.532-2.649-2.074c-1.026-0.544-2.123-0.879-3.293-1.009c-0.183-0.025-0.356-0.039-0.526-0.039
			h-0.565c-1.948,0-3.688,0.517-5.223,1.552c-1.531,1.033-2.674,2.391-3.428,4.071c-0.261,0.595-0.462,1.202-0.604,1.822
			c-0.144,0.621-0.215,1.268-0.215,1.939c0,0.671,0.071,1.317,0.215,1.938c0.142,0.622,0.343,1.229,0.604,1.824
			c0.754,1.654,1.896,3.005,3.428,4.051c1.534,1.048,3.274,1.57,5.223,1.57c0.755,0,1.468-0.077,2.145-0.231
			c0.648-0.157,1.285-0.375,1.908-0.66c0.103-0.052,0.209-0.109,0.312-0.175c0.104-0.063,0.221-0.123,0.352-0.174
			c0.546,0.827,1.271,1.24,2.184,1.24c0.647,0,1.231-0.245,1.754-0.736c0.518-0.489,0.779-1.086,0.779-1.784v-6.862
			c0-1.188-0.216-2.321-0.645-3.393C145.9,11.006,145.316,10.049,144.575,9.209z M141.517,17.198
			c-0.233,0.53-0.546,0.988-0.937,1.377c-0.388,0.388-0.849,0.691-1.382,0.91c-0.534,0.221-1.098,0.329-1.695,0.329
			c-0.547,0-1.079-0.116-1.597-0.349c-0.52-0.231-0.982-0.543-1.385-0.931c-0.403-0.388-0.728-0.846-0.974-1.376
			c-0.247-0.529-0.372-1.093-0.372-1.687c0-0.569,0.117-1.119,0.353-1.648c0.233-0.529,0.551-0.995,0.954-1.396
			c0.402-0.401,0.865-0.718,1.383-0.951c0.521-0.232,1.066-0.349,1.639-0.349c0.571,0,1.123,0.115,1.656,0.349
			c0.531,0.233,0.999,0.55,1.402,0.951c0.403,0.4,0.722,0.866,0.955,1.396s0.351,1.079,0.351,1.648
			C141.866,16.093,141.75,16.667,141.517,17.198z M63.411,16.619V7.234c-0.611-0.335-1.083-0.848-1.083-0.848
			s-0.889,0.59-2.165,1.443v8.79c0,0.895,0.728,1.616,1.624,1.616C62.683,18.235,63.411,17.512,63.411,16.619z M123.941,2.753
			c-0.857-0.854-1.865-1.525-3.02-2.017C119.765,0.247,118.538,0,117.239,0h-6.819c-0.729,0-1.346,0.253-1.853,0.756
			c-0.504,0.504-0.757,1.118-0.757,1.842v19.661c0,0.725,0.253,1.339,0.757,1.844c0.507,0.503,1.126,0.756,1.853,0.756
			c0.728,0,1.344-0.252,1.851-0.756c0.507-0.505,0.761-1.119,0.761-1.844v-3.412h4.208c1.299,0,2.525-0.245,3.683-0.736
			c1.155-0.492,2.162-1.165,3.02-2.017c0.856-0.854,1.533-1.855,2.025-3.005c0.494-1.15,0.742-2.372,0.742-3.665
			c0-1.292-0.248-2.514-0.742-3.665C125.475,4.608,124.799,3.606,123.941,2.753z M121.155,11.07
			c-0.221,0.504-0.526,0.95-0.916,1.338c-0.391,0.388-0.845,0.692-1.364,0.911c-0.52,0.221-1.064,0.329-1.636,0.329h-4.208V5.196
			h4.208c0.571,0,1.116,0.11,1.636,0.329c0.52,0.22,0.974,0.523,1.364,0.912c0.39,0.387,0.695,0.84,0.916,1.356
			c0.22,0.518,0.331,1.061,0.331,1.629C121.486,10.018,121.375,10.567,121.155,11.07z M84.525,8.938
			c-0.872-0.866-1.876-1.557-3.021-2.075c-1.143-0.517-2.337-0.775-3.584-0.775c-1.273,0-2.481,0.258-3.625,0.775
			c-1.144,0.518-2.143,1.208-3,2.075c-0.857,0.867-1.539,1.868-2.046,3.006c-0.506,1.138-0.76,2.313-0.76,3.53
			c0,1.241,0.253,2.443,0.76,3.606c0.507,1.164,1.195,2.177,2.065,3.044c0.871,0.866,1.877,1.552,3.02,2.055
			c1.143,0.505,2.338,0.73,3.585,0.679c0.96-0.026,1.87-0.149,2.729-0.367c0.856-0.221,1.636-0.616,2.337-1.184
			c0.389-0.414,0.616-0.866,0.682-1.358c0.064-0.49,0-0.95-0.194-1.376c-0.196-0.428-0.496-0.782-0.898-1.067
			c-0.403-0.284-0.876-0.439-1.421-0.466c-0.287,0-0.539,0.039-0.76,0.117c-0.221,0.078-0.442,0.169-0.662,0.271
			c-0.222,0.104-0.475,0.194-0.76,0.271c-0.286,0.077-0.637,0.115-1.053,0.115c-1.506,0-2.688-0.736-3.546-2.209h10.366
			c0.753,0.026,1.383-0.155,1.891-0.544c0.506-0.387,0.76-0.918,0.76-1.589c0-1.242-0.262-2.424-0.781-3.548
			C86.09,10.8,85.396,9.804,84.525,8.938z M74.374,13.302c0.441-0.803,0.955-1.365,1.539-1.688c0.585-0.323,1.253-0.485,2.007-0.485
			c0.728,0,1.39,0.162,1.987,0.485c0.598,0.323,1.118,0.885,1.558,1.688H74.374z M103.736,15.025
			c-0.507-0.554-1.104-1.001-1.793-1.337c-0.688-0.334-1.437-0.504-2.241-0.504h-4.403c-0.311,0-0.578-0.098-0.798-0.291
			c-0.22-0.194-0.332-0.471-0.332-0.834c0-0.335,0.112-0.594,0.332-0.775c0.221-0.18,0.487-0.271,0.798-0.271h6.703
			c0.624,0,1.189-0.253,1.696-0.757c0.506-0.504,0.76-1.092,0.76-1.764c0-0.594-0.235-1.156-0.702-1.687
			c-0.467-0.529-1.051-0.795-1.754-0.795h-6.935c-0.832,0.026-1.599,0.2-2.299,0.524c-0.702,0.324-1.313,0.756-1.832,1.299
			c-0.521,0.543-0.93,1.177-1.229,1.9c-0.299,0.724-0.448,1.473-0.448,2.249c0,0.775,0.142,1.5,0.429,2.172
			c0.285,0.672,0.682,1.293,1.188,1.86c0.506,0.569,1.104,1.014,1.792,1.338c0.688,0.324,1.423,0.485,2.203,0.485h4.287
			c0.7,0,1.052,0.349,1.052,1.046c0,0.62-0.352,0.931-1.052,0.931h-7.17c-0.676,0.026-1.248,0.304-1.715,0.834
			c-0.468,0.529-0.701,1.119-0.701,1.764c0,0.698,0.246,1.28,0.741,1.746c0.492,0.466,1.078,0.697,1.752,0.697h7.17
			c0.91,0,1.727-0.148,2.455-0.445c0.728-0.297,1.364-0.703,1.909-1.222c0.547-0.518,0.981-1.15,1.306-1.899
			c0.325-0.751,0.475-1.552,0.448-2.405c0-0.775-0.143-1.474-0.429-2.095C104.64,16.17,104.242,15.582,103.736,15.025z
			 M158.019,20.629c-0.506-0.464-1.097-0.697-1.772-0.697c-0.52,0-0.949-0.182-1.286-0.543c-0.337-0.362-0.506-0.8-0.506-1.318
			V2.753c-0.052-0.724-0.318-1.331-0.798-1.823c-0.481-0.491-1.074-0.736-1.774-0.736c-0.701,0.026-1.285,0.271-1.754,0.736
			c-0.468,0.465-0.74,1.022-0.818,1.667V18.07c0,0.904,0.177,1.771,0.528,2.598c0.349,0.827,0.829,1.552,1.441,2.172
			c0.609,0.621,1.318,1.118,2.124,1.493c0.805,0.375,1.662,0.562,2.572,0.562h0.546c0.674-0.103,1.225-0.393,1.655-0.872
			c0.429-0.478,0.644-1.027,0.644-1.646C158.791,21.678,158.526,21.095,158.019,20.629z"/>
	</g>
</g>
</svg>
