<?xml version="1.0" encoding="utf-8"?>
<!-- Generator: Adobe Illustrator 16.0.0, SVG Export Plug-In . SVG Version: 6.00 Build 0)  -->
<!DOCTYPE svg PUBLIC "-//W3C//DTD SVG 1.1//EN" "http://www.w3.org/Graphics/SVG/1.1/DTD/svg11.dtd">
<svg version="1.1" id="Layer_1" xmlns="http://www.w3.org/2000/svg" xmlns:xlink="http://www.w3.org/1999/xlink" x="0px" y="0px"
	 width="410px" height="53px" viewBox="0 0 410 53" enable-background="new 0 0 410 53" xml:space="preserve">
<g id="Layer_1_1_">
	<g id="Layer_4">
	</g>
	<g>
		<g>
			<defs>
				<path id="SVGID_1_" d="M135.147,42.248c-0.079,0-28.961-0.003-33.135-0.006c-1.755-0.881-3.188-2.296-4.08-4.04V5.693
					c-0.112-1.541-0.677-2.832-1.701-3.879c-1.024-1.045-2.28-1.567-3.774-1.567c-1.492,0.056-2.736,0.577-3.731,1.567
					c-0.994,0.99-1.575,2.174-1.741,3.548v32.925c0,1.925,0.373,3.77,1.12,5.528c0.746,1.76,1.768,3.303,3.067,4.619
					c1.299,1.323,2.804,2.381,4.52,3.18c1.712,0.798,3.537,1.194,5.474,1.194h34.561c1.437-0.217,2.612-0.835,3.523-1.855
					c0.913-1.016,1.369-2.188,1.369-3.505c-0.055-1.485-0.62-2.726-1.699-3.715C137.84,42.744,136.583,42.248,135.147,42.248z
					 M76.91,19.432c-1.575-1.787-3.455-3.26-5.638-4.415c-2.186-1.156-4.52-1.87-7.008-2.146c-0.386-0.054-0.761-0.082-1.12-0.082
					h-1.203c-4.146,0-7.851,1.101-11.111,3.301c-3.263,2.2-5.695,5.089-7.298,8.664c-0.552,1.267-0.981,2.559-1.285,3.879
					c-0.304,1.319-0.457,2.697-0.457,4.126c0,1.428,0.152,2.805,0.457,4.122c0.304,1.322,0.733,2.614,1.285,3.88
					c1.603,3.521,4.035,6.396,7.298,8.623c3.26,2.229,6.965,3.342,11.111,3.342c1.603,0,3.123-0.166,4.561-0.493
					c1.381-0.334,2.736-0.799,4.063-1.406c0.221-0.108,0.441-0.23,0.664-0.37c0.221-0.138,0.469-0.263,0.747-0.371
					c1.161,1.759,2.708,2.641,4.644,2.641c1.381,0,2.625-0.522,3.731-1.568c1.105-1.041,1.659-2.31,1.659-3.795V32.76
					c0-2.529-0.456-4.938-1.368-7.221C79.731,23.255,78.487,21.22,76.91,19.432z M70.401,36.431c-0.498,1.13-1.161,2.104-1.99,2.932
					c-0.83,0.824-1.812,1.471-2.943,1.936C64.334,41.769,63.13,42,61.86,42c-1.161,0-2.294-0.248-3.4-0.742
					c-1.106-0.496-2.087-1.157-2.942-1.981c-0.858-0.824-1.549-1.799-2.073-2.928c-0.526-1.127-0.789-2.323-0.789-3.589
					c0-1.209,0.248-2.381,0.746-3.508c0.499-1.126,1.174-2.118,2.032-2.971c0.855-0.852,1.838-1.526,2.945-2.021
					c1.105-0.495,2.265-0.743,3.483-0.743c1.215,0,2.39,0.247,3.524,0.743c1.131,0.495,2.127,1.169,2.984,2.021
					c0.855,0.853,1.535,1.845,2.033,2.971c0.498,1.127,0.748,2.299,0.748,3.508C71.148,34.079,70.9,35.302,70.401,36.431z
					 M32.672,25.456c-1.492-1.457-3.193-2.6-5.101-3.425c-1.907-0.824-3.883-1.237-5.929-1.237h-5.638
					c-1.327,0-2.447-0.454-3.359-1.362s-1.397-1.994-1.451-3.26c0.056-1.429,0.539-2.626,1.451-3.588
					c0.913-0.961,2.032-1.443,3.359-1.443h14.759c1.604,0,2.93-0.521,3.981-1.568c1.048-1.045,1.575-2.364,1.575-3.96
					c-0.112-1.595-0.691-2.928-1.741-4.002C33.528,0.535,32.256,0,30.764,0H16.005c-2.212,0-4.286,0.454-6.219,1.361
					c-1.936,0.908-3.635,2.104-5.1,3.59c-1.465,1.485-2.613,3.191-3.442,5.116C0.415,11.993,0,13.974,0,16.009
					c0,2.255,0.441,4.347,1.327,6.271c0.883,1.927,2.059,3.59,3.524,4.993c1.464,1.402,3.165,2.517,5.101,3.342
					c1.934,0.822,3.953,1.266,6.054,1.32h5.721c1.27,0.053,2.391,0.534,3.357,1.442c0.967,0.909,1.451,2.047,1.451,3.424
					c0,1.32-0.498,2.449-1.492,3.385c-0.996,0.935-2.128,1.402-3.4,1.402H6.884c-1.604,0-2.945,0.548-4.022,1.648
					c-1.079,1.101-1.618,2.395-1.618,3.881c0,1.597,0.524,2.928,1.577,4c1.05,1.072,2.404,1.611,4.063,1.611h14.76
					c2.21-0.058,4.284-0.508,6.219-1.363c1.935-0.853,3.619-1.993,5.059-3.425c1.436-1.428,2.57-3.107,3.4-5.032
					c0.828-1.925,1.243-3.963,1.243-6.107c0-2.198-0.442-4.277-1.326-6.23C35.354,28.621,34.164,26.914,32.672,25.456z
					 M109.597,35.199V29.09c-4.779,2.911-6.911,0.381-6.911,0.381v5.729c0,1.899,1.547,3.438,3.455,3.438
					S109.597,37.099,109.597,35.199z M139.691,2.206l-7.553-2.133c-0.374-0.105-0.726-0.067-1.057,0.115
					c-0.332,0.183-0.549,0.457-0.66,0.829c-0.108,0.369-0.078,0.828,0.105,1.155l1.283,2.308l-22.872,14.118
					c0,0-2.386,1.313-3.743,2.06l-1.286,0.707c-1.356,0.748-1.854,2.437-1.11,3.776c0.744,1.34,2.447,1.821,3.803,1.074l1.287-0.709
					c1.356-0.746,3.743-2.058,3.743-2.058L134.503,9.33l1.283,2.31c0.181,0.327,0.555,0.597,0.927,0.703
					c0.374,0.105,0.727,0.067,1.057-0.115c0.33-0.181,0.549-0.457,0.659-0.83l2.204-7.499c0.11-0.371,0.073-0.72-0.108-1.045
					C140.345,2.527,140.066,2.311,139.691,2.206z M179.863,18.854c-1.853-1.842-3.993-3.313-6.427-4.415
					c-2.432-1.099-4.974-1.649-7.627-1.649c-2.709,0-5.281,0.549-7.713,1.649c-2.435,1.102-4.561,2.573-6.386,4.415
					c-1.823,1.845-3.276,3.975-4.354,6.396c-1.077,2.423-1.616,4.923-1.616,7.511c0,2.641,0.539,5.198,1.616,7.674
					c1.078,2.478,2.543,4.633,4.395,6.478c1.853,1.845,3.994,3.302,6.426,4.374s4.976,1.554,7.629,1.443
					c2.044-0.055,3.98-0.317,5.807-0.781c1.822-0.468,3.481-1.31,4.974-2.519c0.827-0.881,1.312-1.845,1.451-2.891
					c0.137-1.044,0-2.021-0.415-2.929c-0.415-0.909-1.054-1.662-1.909-2.27c-0.858-0.604-1.865-0.936-3.025-0.992
					c-0.61,0-1.147,0.083-1.617,0.248c-0.47,0.165-0.941,0.359-1.41,0.579c-0.472,0.22-1.008,0.413-1.615,0.579
					c-0.61,0.162-1.356,0.245-2.241,0.245c-3.205,0-5.72-1.568-7.544-4.702h22.056c1.604,0.054,2.944-0.331,4.023-1.157
					c1.078-0.824,1.617-1.953,1.617-3.381c0-2.644-0.555-5.158-1.661-7.551C183.194,22.816,181.715,20.698,179.863,18.854z
					 M158.262,28.139c0.941-1.707,2.033-2.902,3.276-3.59c1.245-0.688,2.666-1.032,4.271-1.032c1.547,0,2.955,0.345,4.229,1.032
					c1.27,0.688,2.376,1.883,3.316,3.59H158.262z M134.934,35.199v-19.97c-1.299-0.715-2.304-1.804-2.304-1.804
					s-1.892,1.255-4.605,3.071v18.703c0,1.902,1.547,3.438,3.455,3.438C133.385,38.638,134.934,37.099,134.934,35.199z
					 M122.264,35.199V20.365c-2.35,1.587-4.777,3.237-6.911,4.711v10.124c0,1.899,1.549,3.438,3.457,3.438
					S122.264,37.099,122.264,35.199z M223.274,35.564c-0.607-1.32-1.451-2.571-2.526-3.755c-1.079-1.182-2.351-2.13-3.816-2.846
					c-1.466-0.714-3.055-1.071-4.769-1.071h-9.37c-0.664,0-1.229-0.209-1.699-0.619c-0.472-0.415-0.707-1.005-0.707-1.777
					c0-0.713,0.235-1.264,0.704-1.649c0.471-0.384,1.038-0.578,1.7-0.578h14.264c1.327,0,2.53-0.537,3.608-1.61
					c1.077-1.072,1.616-2.323,1.616-3.754c0-1.265-0.499-2.461-1.491-3.59c-0.996-1.125-2.238-1.691-3.733-1.691h-14.757
					c-1.771,0.056-3.401,0.426-4.894,1.115c-1.493,0.688-2.793,1.609-3.898,2.764c-1.107,1.156-1.977,2.504-2.613,4.044
					c-0.636,1.54-0.952,3.134-0.952,4.786c0,1.651,0.302,3.191,0.913,4.622c0.607,1.432,1.451,2.752,2.529,3.961
					c1.078,1.211,2.35,2.158,3.813,2.845c1.465,0.69,3.028,1.032,4.688,1.032h9.122c1.489,0,2.238,0.744,2.238,2.227
					c0,1.32-0.749,1.982-2.238,1.982h-15.258c-1.44,0.054-2.656,0.644-3.649,1.773c-0.995,1.126-1.493,2.381-1.493,3.752
					c0,1.488,0.524,2.726,1.577,3.715c1.048,0.993,2.292,1.486,3.731,1.486h15.257c1.935,0,3.675-0.316,5.224-0.95
					c1.548-0.63,2.902-1.494,4.063-2.598c1.164-1.101,2.086-2.449,2.777-4.043c0.693-1.597,1.008-3.302,0.955-5.118
					C224.189,38.37,223.882,36.882,223.274,35.564z"/>
			</defs>
			<clipPath id="SVGID_2_">
				<use xlink:href="#SVGID_1_"  overflow="visible"/>
			</clipPath>
			<rect x="99.878" y="-2.378" clip-path="url(#SVGID_2_)" fill="#1785EB" width="41.839" height="42.282"/>
		</g>
		<g>
			<defs>
				<path id="SVGID_3_" d="M135.147,42.248c-0.079,0-28.961-0.003-33.135-0.006c-1.755-0.881-3.188-2.296-4.08-4.04V5.693
					c-0.112-1.541-0.677-2.832-1.701-3.879c-1.024-1.045-2.28-1.567-3.774-1.567c-1.492,0.056-2.736,0.577-3.731,1.567
					c-0.994,0.99-1.575,2.174-1.741,3.548v32.925c0,1.925,0.373,3.77,1.12,5.528c0.746,1.76,1.768,3.303,3.067,4.619
					c1.299,1.323,2.804,2.381,4.52,3.18c1.712,0.798,3.537,1.194,5.474,1.194h34.561c1.437-0.217,2.612-0.835,3.523-1.855
					c0.913-1.016,1.369-2.188,1.369-3.505c-0.055-1.485-0.62-2.726-1.699-3.715C137.84,42.744,136.583,42.248,135.147,42.248z
					 M76.91,19.432c-1.575-1.787-3.455-3.26-5.638-4.415c-2.186-1.156-4.52-1.87-7.008-2.146c-0.386-0.054-0.761-0.082-1.12-0.082
					h-1.203c-4.146,0-7.851,1.101-11.111,3.301c-3.263,2.2-5.695,5.089-7.298,8.664c-0.552,1.267-0.981,2.559-1.285,3.879
					c-0.304,1.319-0.457,2.697-0.457,4.126c0,1.428,0.152,2.805,0.457,4.122c0.304,1.322,0.733,2.614,1.285,3.88
					c1.603,3.521,4.035,6.396,7.298,8.623c3.26,2.229,6.965,3.342,11.111,3.342c1.603,0,3.123-0.166,4.561-0.493
					c1.381-0.334,2.736-0.799,4.063-1.406c0.221-0.108,0.441-0.23,0.664-0.37c0.221-0.138,0.469-0.263,0.747-0.371
					c1.161,1.759,2.708,2.641,4.644,2.641c1.381,0,2.625-0.522,3.731-1.568c1.105-1.041,1.659-2.31,1.659-3.795V32.76
					c0-2.529-0.456-4.938-1.368-7.221C79.731,23.255,78.487,21.22,76.91,19.432z M70.401,36.431c-0.498,1.13-1.161,2.104-1.99,2.932
					c-0.83,0.824-1.812,1.471-2.943,1.936C64.334,41.769,63.13,42,61.86,42c-1.161,0-2.294-0.248-3.4-0.742
					c-1.106-0.496-2.087-1.157-2.942-1.981c-0.858-0.824-1.549-1.799-2.073-2.928c-0.526-1.127-0.789-2.323-0.789-3.589
					c0-1.209,0.248-2.381,0.746-3.508c0.499-1.126,1.174-2.118,2.032-2.971c0.855-0.852,1.838-1.526,2.945-2.021
					c1.105-0.495,2.265-0.743,3.483-0.743c1.215,0,2.39,0.247,3.524,0.743c1.131,0.495,2.127,1.169,2.984,2.021
					c0.855,0.853,1.535,1.845,2.033,2.971c0.498,1.127,0.748,2.299,0.748,3.508C71.148,34.079,70.9,35.302,70.401,36.431z
					 M32.672,25.456c-1.492-1.457-3.193-2.6-5.101-3.425c-1.907-0.824-3.883-1.237-5.929-1.237h-5.638
					c-1.327,0-2.447-0.454-3.359-1.362s-1.397-1.994-1.451-3.26c0.056-1.429,0.539-2.626,1.451-3.588
					c0.913-0.961,2.032-1.443,3.359-1.443h14.759c1.604,0,2.93-0.521,3.981-1.568c1.048-1.045,1.575-2.364,1.575-3.96
					c-0.112-1.595-0.691-2.928-1.741-4.002C33.528,0.535,32.256,0,30.764,0H16.005c-2.212,0-4.286,0.454-6.219,1.361
					c-1.936,0.908-3.635,2.104-5.1,3.59c-1.465,1.485-2.613,3.191-3.442,5.116C0.415,11.993,0,13.974,0,16.009
					c0,2.255,0.441,4.347,1.327,6.271c0.883,1.927,2.059,3.59,3.524,4.993c1.464,1.402,3.165,2.517,5.101,3.342
					c1.934,0.822,3.953,1.266,6.054,1.32h5.721c1.27,0.053,2.391,0.534,3.357,1.442c0.967,0.909,1.451,2.047,1.451,3.424
					c0,1.32-0.498,2.449-1.492,3.385c-0.996,0.935-2.128,1.402-3.4,1.402H6.884c-1.604,0-2.945,0.548-4.022,1.648
					c-1.079,1.101-1.618,2.395-1.618,3.881c0,1.597,0.524,2.928,1.577,4c1.05,1.072,2.404,1.611,4.063,1.611h14.76
					c2.21-0.058,4.284-0.508,6.219-1.363c1.935-0.853,3.619-1.993,5.059-3.425c1.436-1.428,2.57-3.107,3.4-5.032
					c0.828-1.925,1.243-3.963,1.243-6.107c0-2.198-0.442-4.277-1.326-6.23C35.354,28.621,34.164,26.914,32.672,25.456z
					 M109.597,35.199V29.09c-4.779,2.911-6.911,0.381-6.911,0.381v5.729c0,1.899,1.547,3.438,3.455,3.438
					S109.597,37.099,109.597,35.199z M139.691,2.206l-7.553-2.133c-0.374-0.105-0.726-0.067-1.057,0.115
					c-0.332,0.183-0.549,0.457-0.66,0.829c-0.108,0.369-0.078,0.828,0.105,1.155l1.283,2.308l-22.872,14.118
					c0,0-2.386,1.313-3.743,2.06l-1.286,0.707c-1.356,0.748-1.854,2.437-1.11,3.776c0.744,1.34,2.447,1.821,3.803,1.074l1.287-0.709
					c1.356-0.746,3.743-2.058,3.743-2.058L134.503,9.33l1.283,2.31c0.181,0.327,0.555,0.597,0.927,0.703
					c0.374,0.105,0.727,0.067,1.057-0.115c0.33-0.181,0.549-0.457,0.659-0.83l2.204-7.499c0.11-0.371,0.073-0.72-0.108-1.045
					C140.345,2.527,140.066,2.311,139.691,2.206z M179.863,18.854c-1.853-1.842-3.993-3.313-6.427-4.415
					c-2.432-1.099-4.974-1.649-7.627-1.649c-2.709,0-5.281,0.549-7.713,1.649c-2.435,1.102-4.561,2.573-6.386,4.415
					c-1.823,1.845-3.276,3.975-4.354,6.396c-1.077,2.423-1.616,4.923-1.616,7.511c0,2.641,0.539,5.198,1.616,7.674
					c1.078,2.478,2.543,4.633,4.395,6.478c1.853,1.845,3.994,3.302,6.426,4.374s4.976,1.554,7.629,1.443
					c2.044-0.055,3.98-0.317,5.807-0.781c1.822-0.468,3.481-1.31,4.974-2.519c0.827-0.881,1.312-1.845,1.451-2.891
					c0.137-1.044,0-2.021-0.415-2.929c-0.415-0.909-1.054-1.662-1.909-2.27c-0.858-0.604-1.865-0.936-3.025-0.992
					c-0.61,0-1.147,0.083-1.617,0.248c-0.47,0.165-0.941,0.359-1.41,0.579c-0.472,0.22-1.008,0.413-1.615,0.579
					c-0.61,0.162-1.356,0.245-2.241,0.245c-3.205,0-5.72-1.568-7.544-4.702h22.056c1.604,0.054,2.944-0.331,4.023-1.157
					c1.078-0.824,1.617-1.953,1.617-3.381c0-2.644-0.555-5.158-1.661-7.551C183.194,22.816,181.715,20.698,179.863,18.854z
					 M158.262,28.139c0.941-1.707,2.033-2.902,3.276-3.59c1.245-0.688,2.666-1.032,4.271-1.032c1.547,0,2.955,0.345,4.229,1.032
					c1.27,0.688,2.376,1.883,3.316,3.59H158.262z M134.934,35.199v-19.97c-1.299-0.715-2.304-1.804-2.304-1.804
					s-1.892,1.255-4.605,3.071v18.703c0,1.902,1.547,3.438,3.455,3.438C133.385,38.638,134.934,37.099,134.934,35.199z
					 M122.264,35.199V20.365c-2.35,1.587-4.777,3.237-6.911,4.711v10.124c0,1.899,1.549,3.438,3.457,3.438
					S122.264,37.099,122.264,35.199z M223.274,35.564c-0.607-1.32-1.451-2.571-2.526-3.755c-1.079-1.182-2.351-2.13-3.816-2.846
					c-1.466-0.714-3.055-1.071-4.769-1.071h-9.37c-0.664,0-1.229-0.209-1.699-0.619c-0.472-0.415-0.707-1.005-0.707-1.777
					c0-0.713,0.235-1.264,0.704-1.649c0.471-0.384,1.038-0.578,1.7-0.578h14.264c1.327,0,2.53-0.537,3.608-1.61
					c1.077-1.072,1.616-2.323,1.616-3.754c0-1.265-0.499-2.461-1.491-3.59c-0.996-1.125-2.238-1.691-3.733-1.691h-14.757
					c-1.771,0.056-3.401,0.426-4.894,1.115c-1.493,0.688-2.793,1.609-3.898,2.764c-1.107,1.156-1.977,2.504-2.613,4.044
					c-0.636,1.54-0.952,3.134-0.952,4.786c0,1.651,0.302,3.191,0.913,4.622c0.607,1.432,1.451,2.752,2.529,3.961
					c1.078,1.211,2.35,2.158,3.813,2.845c1.465,0.69,3.028,1.032,4.688,1.032h9.122c1.489,0,2.238,0.744,2.238,2.227
					c0,1.32-0.749,1.982-2.238,1.982h-15.258c-1.44,0.054-2.656,0.644-3.649,1.773c-0.995,1.126-1.493,2.381-1.493,3.752
					c0,1.488,0.524,2.726,1.577,3.715c1.048,0.993,2.292,1.486,3.731,1.486h15.257c1.935,0,3.675-0.316,5.224-0.95
					c1.548-0.63,2.902-1.494,4.063-2.598c1.164-1.101,2.086-2.449,2.777-4.043c0.693-1.597,1.008-3.302,0.955-5.118
					C224.189,38.37,223.882,36.882,223.274,35.564z"/>
			</defs>
			<clipPath id="SVGID_4_">
				<use xlink:href="#SVGID_3_"  overflow="visible"/>
			</clipPath>
			<polygon clip-path="url(#SVGID_4_)" fill="#0E5FAA" points="98.078,-4.381 98.927,32.767 98.927,37.782 99.878,40.337 
				102.029,41.158 141.717,41.797 143.544,46.45 143.087,52.809 128.023,57.034 -33.921,68.896 -23.216,-19.425 			"/>
		</g>
		<g>
			<defs>
				<path id="SVGID_5_" d="M135.147,42.248c-0.079,0-28.961-0.003-33.135-0.006c-1.755-0.881-3.188-2.296-4.08-4.04V5.693
					c-0.112-1.541-0.677-2.832-1.701-3.879c-1.024-1.045-2.28-1.567-3.774-1.567c-1.492,0.056-2.736,0.577-3.731,1.567
					c-0.994,0.99-1.575,2.174-1.741,3.548v32.925c0,1.925,0.373,3.77,1.12,5.528c0.746,1.76,1.768,3.303,3.067,4.619
					c1.299,1.323,2.804,2.381,4.52,3.18c1.712,0.798,3.537,1.194,5.474,1.194h34.561c1.437-0.217,2.612-0.835,3.523-1.855
					c0.913-1.016,1.369-2.188,1.369-3.505c-0.055-1.485-0.62-2.726-1.699-3.715C137.84,42.744,136.583,42.248,135.147,42.248z
					 M76.91,19.432c-1.575-1.787-3.455-3.26-5.638-4.415c-2.186-1.156-4.52-1.87-7.008-2.146c-0.386-0.054-0.761-0.082-1.12-0.082
					h-1.203c-4.146,0-7.851,1.101-11.111,3.301c-3.263,2.2-5.695,5.089-7.298,8.664c-0.552,1.267-0.981,2.559-1.285,3.879
					c-0.304,1.319-0.457,2.697-0.457,4.126c0,1.428,0.152,2.805,0.457,4.122c0.304,1.322,0.733,2.614,1.285,3.88
					c1.603,3.521,4.035,6.396,7.298,8.623c3.26,2.229,6.965,3.342,11.111,3.342c1.603,0,3.123-0.166,4.561-0.493
					c1.381-0.334,2.736-0.799,4.063-1.406c0.221-0.108,0.441-0.23,0.664-0.37c0.221-0.138,0.469-0.263,0.747-0.371
					c1.161,1.759,2.708,2.641,4.644,2.641c1.381,0,2.625-0.522,3.731-1.568c1.105-1.041,1.659-2.31,1.659-3.795V32.76
					c0-2.529-0.456-4.938-1.368-7.221C79.731,23.255,78.487,21.22,76.91,19.432z M70.401,36.431c-0.498,1.13-1.161,2.104-1.99,2.932
					c-0.83,0.824-1.812,1.471-2.943,1.936C64.334,41.769,63.13,42,61.86,42c-1.161,0-2.294-0.248-3.4-0.742
					c-1.106-0.496-2.087-1.157-2.942-1.981c-0.858-0.824-1.549-1.799-2.073-2.928c-0.526-1.127-0.789-2.323-0.789-3.589
					c0-1.209,0.248-2.381,0.746-3.508c0.499-1.126,1.174-2.118,2.032-2.971c0.855-0.852,1.838-1.526,2.945-2.021
					c1.105-0.495,2.265-0.743,3.483-0.743c1.215,0,2.39,0.247,3.524,0.743c1.131,0.495,2.127,1.169,2.984,2.021
					c0.855,0.853,1.535,1.845,2.033,2.971c0.498,1.127,0.748,2.299,0.748,3.508C71.148,34.079,70.9,35.302,70.401,36.431z
					 M32.672,25.456c-1.492-1.457-3.193-2.6-5.101-3.425c-1.907-0.824-3.883-1.237-5.929-1.237h-5.638
					c-1.327,0-2.447-0.454-3.359-1.362s-1.397-1.994-1.451-3.26c0.056-1.429,0.539-2.626,1.451-3.588
					c0.913-0.961,2.032-1.443,3.359-1.443h14.759c1.604,0,2.93-0.521,3.981-1.568c1.048-1.045,1.575-2.364,1.575-3.96
					c-0.112-1.595-0.691-2.928-1.741-4.002C33.528,0.535,32.256,0,30.764,0H16.005c-2.212,0-4.286,0.454-6.219,1.361
					c-1.936,0.908-3.635,2.104-5.1,3.59c-1.465,1.485-2.613,3.191-3.442,5.116C0.415,11.993,0,13.974,0,16.009
					c0,2.255,0.441,4.347,1.327,6.271c0.883,1.927,2.059,3.59,3.524,4.993c1.464,1.402,3.165,2.517,5.101,3.342
					c1.934,0.822,3.953,1.266,6.054,1.32h5.721c1.27,0.053,2.391,0.534,3.357,1.442c0.967,0.909,1.451,2.047,1.451,3.424
					c0,1.32-0.498,2.449-1.492,3.385c-0.996,0.935-2.128,1.402-3.4,1.402H6.884c-1.604,0-2.945,0.548-4.022,1.648
					c-1.079,1.101-1.618,2.395-1.618,3.881c0,1.597,0.524,2.928,1.577,4c1.05,1.072,2.404,1.611,4.063,1.611h14.76
					c2.21-0.058,4.284-0.508,6.219-1.363c1.935-0.853,3.619-1.993,5.059-3.425c1.436-1.428,2.57-3.107,3.4-5.032
					c0.828-1.925,1.243-3.963,1.243-6.107c0-2.198-0.442-4.277-1.326-6.23C35.354,28.621,34.164,26.914,32.672,25.456z
					 M109.597,35.199V29.09c-4.779,2.911-6.911,0.381-6.911,0.381v5.729c0,1.899,1.547,3.438,3.455,3.438
					S109.597,37.099,109.597,35.199z M139.691,2.206l-7.553-2.133c-0.374-0.105-0.726-0.067-1.057,0.115
					c-0.332,0.183-0.549,0.457-0.66,0.829c-0.108,0.369-0.078,0.828,0.105,1.155l1.283,2.308l-22.872,14.118
					c0,0-2.386,1.313-3.743,2.06l-1.286,0.707c-1.356,0.748-1.854,2.437-1.11,3.776c0.744,1.34,2.447,1.821,3.803,1.074l1.287-0.709
					c1.356-0.746,3.743-2.058,3.743-2.058L134.503,9.33l1.283,2.31c0.181,0.327,0.555,0.597,0.927,0.703
					c0.374,0.105,0.727,0.067,1.057-0.115c0.33-0.181,0.549-0.457,0.659-0.83l2.204-7.499c0.11-0.371,0.073-0.72-0.108-1.045
					C140.345,2.527,140.066,2.311,139.691,2.206z M179.863,18.854c-1.853-1.842-3.993-3.313-6.427-4.415
					c-2.432-1.099-4.974-1.649-7.627-1.649c-2.709,0-5.281,0.549-7.713,1.649c-2.435,1.102-4.561,2.573-6.386,4.415
					c-1.823,1.845-3.276,3.975-4.354,6.396c-1.077,2.423-1.616,4.923-1.616,7.511c0,2.641,0.539,5.198,1.616,7.674
					c1.078,2.478,2.543,4.633,4.395,6.478c1.853,1.845,3.994,3.302,6.426,4.374s4.976,1.554,7.629,1.443
					c2.044-0.055,3.98-0.317,5.807-0.781c1.822-0.468,3.481-1.31,4.974-2.519c0.827-0.881,1.312-1.845,1.451-2.891
					c0.137-1.044,0-2.021-0.415-2.929c-0.415-0.909-1.054-1.662-1.909-2.27c-0.858-0.604-1.865-0.936-3.025-0.992
					c-0.61,0-1.147,0.083-1.617,0.248c-0.47,0.165-0.941,0.359-1.41,0.579c-0.472,0.22-1.008,0.413-1.615,0.579
					c-0.61,0.162-1.356,0.245-2.241,0.245c-3.205,0-5.72-1.568-7.544-4.702h22.056c1.604,0.054,2.944-0.331,4.023-1.157
					c1.078-0.824,1.617-1.953,1.617-3.381c0-2.644-0.555-5.158-1.661-7.551C183.194,22.816,181.715,20.698,179.863,18.854z
					 M158.262,28.139c0.941-1.707,2.033-2.902,3.276-3.59c1.245-0.688,2.666-1.032,4.271-1.032c1.547,0,2.955,0.345,4.229,1.032
					c1.27,0.688,2.376,1.883,3.316,3.59H158.262z M134.934,35.199v-19.97c-1.299-0.715-2.304-1.804-2.304-1.804
					s-1.892,1.255-4.605,3.071v18.703c0,1.902,1.547,3.438,3.455,3.438C133.385,38.638,134.934,37.099,134.934,35.199z
					 M122.264,35.199V20.365c-2.35,1.587-4.777,3.237-6.911,4.711v10.124c0,1.899,1.549,3.438,3.457,3.438
					S122.264,37.099,122.264,35.199z M223.274,35.564c-0.607-1.32-1.451-2.571-2.526-3.755c-1.079-1.182-2.351-2.13-3.816-2.846
					c-1.466-0.714-3.055-1.071-4.769-1.071h-9.37c-0.664,0-1.229-0.209-1.699-0.619c-0.472-0.415-0.707-1.005-0.707-1.777
					c0-0.713,0.235-1.264,0.704-1.649c0.471-0.384,1.038-0.578,1.7-0.578h14.264c1.327,0,2.53-0.537,3.608-1.61
					c1.077-1.072,1.616-2.323,1.616-3.754c0-1.265-0.499-2.461-1.491-3.59c-0.996-1.125-2.238-1.691-3.733-1.691h-14.757
					c-1.771,0.056-3.401,0.426-4.894,1.115c-1.493,0.688-2.793,1.609-3.898,2.764c-1.107,1.156-1.977,2.504-2.613,4.044
					c-0.636,1.54-0.952,3.134-0.952,4.786c0,1.651,0.302,3.191,0.913,4.622c0.607,1.432,1.451,2.752,2.529,3.961
					c1.078,1.211,2.35,2.158,3.813,2.845c1.465,0.69,3.028,1.032,4.688,1.032h9.122c1.489,0,2.238,0.744,2.238,2.227
					c0,1.32-0.749,1.982-2.238,1.982h-15.258c-1.44,0.054-2.656,0.644-3.649,1.773c-0.995,1.126-1.493,2.381-1.493,3.752
					c0,1.488,0.524,2.726,1.577,3.715c1.048,0.993,2.292,1.486,3.731,1.486h15.257c1.935,0,3.675-0.316,5.224-0.95
					c1.548-0.63,2.902-1.494,4.063-2.598c1.164-1.101,2.086-2.449,2.777-4.043c0.693-1.597,1.008-3.302,0.955-5.118
					C224.189,38.37,223.882,36.882,223.274,35.564z"/>
			</defs>
			<clipPath id="SVGID_6_">
				<use xlink:href="#SVGID_5_"  overflow="visible"/>
			</clipPath>
			<polygon clip-path="url(#SVGID_6_)" fill="#0E5FAA" points="144.668,-2.378 144.668,21.572 143.544,34.47 144.668,46.633 
				151.117,55.149 189.94,58.435 222.041,61.112 226.056,47.12 227.395,21.816 223.259,5.514 			"/>
		</g>
	</g>
</g>
<g id="Layer_2">
	<path fill="#1785EB" d="M268.054,12.333c-1.052-2.446-2.488-4.579-4.311-6.396c-1.825-1.816-3.969-3.246-6.427-4.291
		c-2.464-1.043-5.075-1.568-7.837-1.568h-14.512c-1.55,0-2.86,0.537-3.938,1.609c-1.078,1.073-1.617,2.379-1.617,3.919v41.838
		c0,1.54,0.539,2.846,1.617,3.921c1.077,1.072,2.389,1.608,3.938,1.608c1.548,0,2.859-0.536,3.938-1.608
		c1.079-1.072,1.619-2.381,1.619-3.921v-7.262h8.955c2.765,0,5.376-0.522,7.837-1.568c2.458-1.044,4.602-2.475,6.427-4.291
		c1.822-1.815,3.259-3.945,4.311-6.396c1.05-2.447,1.577-5.045,1.577-7.797C269.631,17.381,269.101,14.781,268.054,12.333z
		 M257.811,23.638c-0.469,1.073-1.119,2.021-1.948,2.845c-0.83,0.827-1.797,1.473-2.903,1.939c-1.105,0.47-2.265,0.701-3.481,0.701
		h-8.954V11.137h8.954c1.217,0,2.376,0.235,3.481,0.701c1.106,0.467,2.073,1.114,2.903,1.939c0.829,0.825,1.479,1.788,1.948,2.888
		c0.47,1.102,0.706,2.257,0.706,3.466C258.517,21.397,258.28,22.565,257.811,23.638z"/>
	<path fill="#1785EB" d="M293.883,13.035c-0.361,0-0.76,0-1.202,0c-4.148,0-7.851,1.101-11.114,3.301
		c-3.259,2.2-5.691,5.089-7.294,8.664c-0.556,1.267-0.983,2.559-1.285,3.879c-0.306,1.32-0.458,2.697-0.458,4.126
		c0,1.428,0.152,2.805,0.458,4.122c0.302,1.323,0.729,2.614,1.285,3.881c1.603,3.521,4.035,6.396,7.294,8.622
		c3.264,2.229,6.966,3.342,11.114,3.342c1.605,0,3.122-0.166,4.563-0.493c1.378-0.334,2.734-0.799,4.06-1.406
		c0.219-0.108,0.444-0.23,0.664-0.37c0.22-0.138,0.468-0.263,0.747-0.371c1.16,1.76,2.706,2.641,4.645,2.641
		c1.38,0,2.623-0.522,3.732-1.568c1.104-1.041,1.659-2.31,1.659-3.795V33.005c0-2.529-0.459-4.938-1.371-7.221
		c-0.909-2.282-2.152-4.318-3.729-6.106c-1.577-1.787-3.456-3.26-5.64-4.415c-2.183-1.156-4.516-1.871-7.008-2.146
		C294.614,13.063,294.242,13.035,293.883,13.035z M289.198,41.504c-1.106-0.496-2.089-1.158-2.944-1.982
		c-0.858-0.823-1.55-1.799-2.073-2.928c-0.525-1.126-0.789-2.324-0.789-3.589c0-1.209,0.248-2.381,0.748-3.508
		c0.498-1.124,1.172-2.118,2.031-2.971c0.855-0.852,1.84-1.526,2.943-2.021c1.107-0.495,2.268-0.743,3.485-0.743
		c1.215,0,2.391,0.247,3.524,0.743c1.13,0.495,2.125,1.169,2.983,2.021c0.857,0.853,1.535,1.847,2.032,2.971
		c0.496,1.127,0.747,2.299,0.747,3.508c0,1.319-0.251,2.545-0.747,3.671c-0.497,1.13-1.159,2.104-1.989,2.932
		c-0.828,0.824-1.81,1.472-2.945,1.936c-1.132,0.471-2.335,0.702-3.605,0.702C291.435,42.245,290.303,42,289.198,41.504z"/>
	<path fill="#1785EB" d="M319.462,2.06c-0.995,0.99-1.573,2.174-1.739,3.547v32.925c0,1.925,0.374,3.77,1.121,5.529
		c0.744,1.759,1.768,3.302,3.067,4.619c1.298,1.322,2.806,2.381,4.52,3.179c1.714,0.799,3.539,1.194,5.475,1.194h1.16
		c1.438-0.216,2.609-0.835,3.524-1.855c0.913-1.016,1.369-2.188,1.369-3.505c-0.055-1.485-0.622-2.726-1.702-3.715
		c-1.075-0.989-2.336-1.485-3.772-1.485c-1.106,0-2.019-0.385-2.737-1.155c-0.716-0.77-1.075-1.702-1.075-2.806V5.938
		c-0.111-1.541-0.679-2.832-1.699-3.879c-1.023-1.045-2.284-1.568-3.775-1.568C321.703,0.547,320.46,1.068,319.462,2.06z"/>
</g>
</svg>
