<?xml version="1.0" encoding="utf-8"?>
<!-- Generator: Adobe Illustrator 16.0.0, SVG Export Plug-In . SVG Version: 6.00 Build 0)  -->
<!DOCTYPE svg PUBLIC "-//W3C//DTD SVG 1.1//EN" "http://www.w3.org/Graphics/SVG/1.1/DTD/svg11.dtd">
<svg version="1.1" id="Layer_1" xmlns="http://www.w3.org/2000/svg" xmlns:xlink="http://www.w3.org/1999/xlink" x="0px" y="0px"
	 width="193px" height="25px" viewBox="0 0 193 25" enable-background="new 0 0 193 25" xml:space="preserve">
<g id="Layer_1_1_">
	<g id="Layer_4">
	</g>
	<g>
		<g>
			<defs>
				<path id="SVGID_1_" d="M63.6,19.882c-0.037,0-13.629-0.002-15.593-0.003c-0.826-0.415-1.5-1.081-1.92-1.901V2.679
					c-0.053-0.725-0.319-1.333-0.8-1.826c-0.482-0.492-1.073-0.737-1.776-0.737c-0.702,0.026-1.288,0.271-1.756,0.737
					s-0.742,1.023-0.819,1.67v15.495c0,0.905,0.175,1.773,0.527,2.602s0.832,1.554,1.444,2.174c0.611,0.623,1.319,1.12,2.127,1.496
					c0.806,0.375,1.665,0.563,2.576,0.563h16.264c0.676-0.103,1.229-0.394,1.658-0.874c0.429-0.478,0.645-1.029,0.645-1.648
					c-0.026-0.7-0.292-1.283-0.8-1.749C64.867,20.114,64.275,19.882,63.6,19.882z M36.193,9.144
					c-0.741-0.841-1.626-1.534-2.653-2.078c-1.029-0.544-2.127-0.88-3.298-1.01c-0.182-0.025-0.358-0.039-0.527-0.039H29.15
					c-1.951,0-3.695,0.518-5.229,1.554c-1.536,1.035-2.68,2.395-3.434,4.078c-0.26,0.596-0.462,1.204-0.605,1.825
					c-0.143,0.621-0.215,1.269-0.215,1.941c0,0.672,0.071,1.319,0.215,1.94c0.143,0.622,0.345,1.23,0.605,1.826
					c0.754,1.657,1.898,3.01,3.434,4.058c1.534,1.048,3.278,1.572,5.229,1.572c0.754,0,1.469-0.078,2.146-0.232
					c0.65-0.156,1.288-0.375,1.912-0.661c0.104-0.052,0.208-0.109,0.313-0.175c0.104-0.064,0.221-0.123,0.351-0.174
					c0.546,0.827,1.274,1.242,2.186,1.242c0.649,0,1.235-0.245,1.755-0.738c0.521-0.489,0.781-1.087,0.781-1.786v-6.872
					c0-1.19-0.214-2.324-0.644-3.398C37.521,10.943,36.936,9.985,36.193,9.144z M33.13,17.145c-0.234,0.53-0.546,0.99-0.937,1.379
					c-0.391,0.387-0.853,0.692-1.385,0.911c-0.534,0.221-1.1,0.33-1.697,0.33c-0.546,0-1.08-0.117-1.6-0.349
					c-0.521-0.233-0.982-0.545-1.385-0.933c-0.404-0.388-0.729-0.847-0.976-1.379c-0.248-0.529-0.371-1.093-0.371-1.688
					c0-0.569,0.117-1.12,0.351-1.65s0.552-0.997,0.956-1.398c0.403-0.401,0.865-0.718,1.386-0.951c0.52-0.233,1.066-0.35,1.639-0.35
					c0.572,0,1.125,0.116,1.658,0.35c0.533,0.233,1.001,0.55,1.404,0.951c0.403,0.401,0.722,0.868,0.957,1.398
					s0.352,1.081,0.352,1.65C33.482,16.037,33.365,16.612,33.13,17.145z M15.375,11.979c-0.702-0.686-1.502-1.224-2.4-1.612
					c-0.897-0.387-1.828-0.582-2.79-0.582H7.532c-0.625,0-1.151-0.214-1.581-0.641C5.521,8.717,5.293,8.206,5.268,7.61
					c0.026-0.672,0.253-1.236,0.683-1.688c0.43-0.453,0.957-0.68,1.581-0.68h6.946c0.755,0,1.378-0.245,1.874-0.738
					c0.493-0.492,0.741-1.113,0.741-1.864c-0.053-0.75-0.325-1.378-0.819-1.883C15.778,0.251,15.18,0,14.478,0H7.532
					C6.491,0,5.515,0.213,4.605,0.64c-0.911,0.427-1.71,0.99-2.4,1.689c-0.689,0.699-1.229,1.502-1.62,2.408S0,6.575,0,7.533
					c0,1.061,0.208,2.046,0.625,2.952c0.416,0.907,0.969,1.689,1.659,2.349c0.689,0.66,1.489,1.185,2.4,1.573
					c0.91,0.387,1.86,0.596,2.849,0.621h2.692c0.597,0.024,1.125,0.251,1.58,0.679c0.455,0.428,0.683,0.964,0.683,1.611
					c0,0.621-0.234,1.152-0.702,1.592c-0.469,0.441-1.001,0.66-1.6,0.66H3.239c-0.755,0-1.386,0.259-1.893,0.776
					c-0.508,0.519-0.761,1.127-0.761,1.826c0,0.751,0.247,1.378,0.742,1.883c0.494,0.505,1.132,0.758,1.912,0.758h6.946
					c1.041-0.026,2.016-0.239,2.927-0.641c0.91-0.401,1.703-0.939,2.38-1.612c0.676-0.673,1.21-1.462,1.6-2.368
					c0.39-0.906,0.585-1.865,0.585-2.874c0-1.035-0.208-2.014-0.624-2.933C16.637,13.468,16.078,12.665,15.375,11.979z
					 M51.576,16.563v-2.875c-2.25,1.37-3.252,0.18-3.252,0.18v2.695c0,0.895,0.728,1.619,1.626,1.619S51.576,17.458,51.576,16.563z
					 M65.738,1.038l-3.554-1.004c-0.176-0.049-0.341-0.032-0.498,0.054c-0.156,0.086-0.258,0.215-0.31,0.39
					c-0.051,0.174-0.037,0.39,0.049,0.543l0.604,1.086L51.266,8.752c0,0-1.123,0.618-1.761,0.969l-0.605,0.333
					c-0.638,0.352-0.873,1.146-0.522,1.776c0.35,0.631,1.151,0.857,1.79,0.506l0.605-0.334c0.638-0.351,1.761-0.968,1.761-0.968
					L63.296,4.39L63.9,5.477c0.085,0.154,0.261,0.281,0.436,0.331c0.176,0.049,0.342,0.031,0.498-0.055
					c0.155-0.085,0.258-0.215,0.31-0.39l1.037-3.529c0.052-0.175,0.035-0.339-0.051-0.492C66.045,1.188,65.914,1.087,65.738,1.038z
					 M84.643,8.872c-0.873-0.867-1.879-1.56-3.024-2.078c-1.145-0.517-2.34-0.776-3.589-0.776c-1.275,0-2.485,0.258-3.63,0.776
					c-1.146,0.518-2.146,1.21-3.004,2.078c-0.858,0.868-1.542,1.87-2.049,3.009c-0.507,1.141-0.761,2.318-0.761,3.536
					c0,1.243,0.253,2.446,0.761,3.61c0.507,1.166,1.197,2.181,2.068,3.049c0.872,0.868,1.88,1.554,3.024,2.059
					c1.145,0.504,2.341,0.73,3.589,0.679c0.962-0.025,1.873-0.148,2.733-0.367c0.857-0.22,1.638-0.616,2.34-1.186
					c0.389-0.414,0.617-0.867,0.683-1.36c0.064-0.49,0-0.951-0.195-1.378c-0.196-0.428-0.496-0.782-0.899-1.068
					c-0.404-0.284-0.877-0.439-1.423-0.467c-0.288,0-0.54,0.039-0.761,0.117c-0.221,0.078-0.442,0.169-0.663,0.272
					c-0.223,0.104-0.475,0.193-0.761,0.271c-0.287,0.077-0.638,0.116-1.055,0.116c-1.508,0-2.692-0.738-3.55-2.213h10.38
					c0.754,0.025,1.385-0.156,1.894-0.545c0.507-0.388,0.761-0.919,0.761-1.591c0-1.244-0.262-2.428-0.782-3.553
					C86.209,10.737,85.515,9.74,84.643,8.872z M74.477,13.241c0.442-0.803,0.957-1.366,1.542-1.689
					c0.586-0.324,1.254-0.486,2.01-0.486c0.729,0,1.391,0.162,1.99,0.486c0.598,0.323,1.119,0.886,1.561,1.689H74.477z
					 M63.499,16.563V7.166c-0.611-0.336-1.084-0.849-1.084-0.849s-0.89,0.591-2.167,1.446v8.802c0,0.895,0.729,1.618,1.626,1.618
					C62.771,18.183,63.499,17.458,63.499,16.563z M57.537,16.563v-6.98c-1.106,0.747-2.248,1.523-3.252,2.217v4.764
					c0,0.895,0.729,1.619,1.627,1.619S57.537,17.458,57.537,16.563z M105.071,16.735c-0.286-0.62-0.683-1.21-1.188-1.767
					c-0.508-0.556-1.106-1.002-1.796-1.339c-0.689-0.336-1.438-0.505-2.244-0.505h-4.41c-0.313,0-0.578-0.098-0.8-0.291
					c-0.221-0.195-0.333-0.473-0.333-0.836c0-0.336,0.111-0.596,0.331-0.777c0.222-0.18,0.489-0.271,0.8-0.271h6.713
					c0.624,0,1.19-0.253,1.697-0.757c0.508-0.505,0.762-1.094,0.762-1.767c0-0.595-0.235-1.158-0.702-1.689
					c-0.469-0.529-1.054-0.796-1.757-0.796H95.2c-0.833,0.026-1.601,0.201-2.303,0.525c-0.703,0.324-1.315,0.757-1.834,1.3
					c-0.522,0.544-0.931,1.179-1.23,1.903c-0.299,0.725-0.448,1.475-0.448,2.252s0.142,1.501,0.429,2.175
					c0.286,0.674,0.683,1.295,1.19,1.863c0.507,0.57,1.105,1.016,1.794,1.34c0.689,0.324,1.425,0.485,2.206,0.485h4.292
					c0.702,0,1.054,0.351,1.054,1.048c0,0.621-0.352,0.932-1.054,0.932h-7.18c-0.678,0.026-1.249,0.305-1.717,0.836
					c-0.469,0.529-0.702,1.119-0.702,1.766c0,0.7,0.247,1.282,0.742,1.748c0.492,0.467,1.079,0.699,1.755,0.699h7.18
					c0.911,0,1.729-0.149,2.458-0.447c0.729-0.297,1.366-0.703,1.912-1.222c0.548-0.519,0.982-1.153,1.307-1.903
					c0.326-0.751,0.476-1.554,0.45-2.408C105.502,18.057,105.357,17.356,105.071,16.735z"/>
			</defs>
			<clipPath id="SVGID_2_">
				<use xlink:href="#SVGID_1_"  overflow="visible"/>
			</clipPath>
			<rect x="47.002" y="-1.12" clip-path="url(#SVGID_2_)" fill="#1785EB" width="19.689" height="19.898"/>
		</g>
		<g>
			<defs>
				<path id="SVGID_3_" d="M63.6,19.882c-0.037,0-13.629-0.002-15.593-0.003c-0.826-0.415-1.5-1.081-1.92-1.901V2.679
					c-0.053-0.725-0.319-1.333-0.8-1.826c-0.482-0.492-1.073-0.737-1.776-0.737c-0.702,0.026-1.288,0.271-1.756,0.737
					s-0.742,1.023-0.819,1.67v15.495c0,0.905,0.175,1.773,0.527,2.602s0.832,1.554,1.444,2.174c0.611,0.623,1.319,1.12,2.127,1.496
					c0.806,0.375,1.665,0.563,2.576,0.563h16.264c0.676-0.103,1.229-0.394,1.658-0.874c0.429-0.478,0.645-1.029,0.645-1.648
					c-0.026-0.7-0.292-1.283-0.8-1.749C64.867,20.114,64.275,19.882,63.6,19.882z M36.193,9.144
					c-0.741-0.841-1.626-1.534-2.653-2.078c-1.029-0.544-2.127-0.88-3.298-1.01c-0.182-0.025-0.358-0.039-0.527-0.039H29.15
					c-1.951,0-3.695,0.518-5.229,1.554c-1.536,1.035-2.68,2.395-3.434,4.078c-0.26,0.596-0.462,1.204-0.605,1.825
					c-0.143,0.621-0.215,1.269-0.215,1.941c0,0.672,0.071,1.319,0.215,1.94c0.143,0.622,0.345,1.23,0.605,1.826
					c0.754,1.657,1.898,3.01,3.434,4.058c1.534,1.048,3.278,1.572,5.229,1.572c0.754,0,1.469-0.078,2.146-0.232
					c0.65-0.156,1.288-0.375,1.912-0.661c0.104-0.052,0.208-0.109,0.313-0.175c0.104-0.064,0.221-0.123,0.351-0.174
					c0.546,0.827,1.274,1.242,2.186,1.242c0.649,0,1.235-0.245,1.755-0.738c0.521-0.489,0.781-1.087,0.781-1.786v-6.872
					c0-1.19-0.214-2.324-0.644-3.398C37.521,10.943,36.936,9.985,36.193,9.144z M33.13,17.145c-0.234,0.53-0.546,0.99-0.937,1.379
					c-0.391,0.387-0.853,0.692-1.385,0.911c-0.534,0.221-1.1,0.33-1.697,0.33c-0.546,0-1.08-0.117-1.6-0.349
					c-0.521-0.233-0.982-0.545-1.385-0.933c-0.404-0.388-0.729-0.847-0.976-1.379c-0.248-0.529-0.371-1.093-0.371-1.688
					c0-0.569,0.117-1.12,0.351-1.65s0.552-0.997,0.956-1.398c0.403-0.401,0.865-0.718,1.386-0.951c0.52-0.233,1.066-0.35,1.639-0.35
					c0.572,0,1.125,0.116,1.658,0.35c0.533,0.233,1.001,0.55,1.404,0.951c0.403,0.401,0.722,0.868,0.957,1.398
					s0.352,1.081,0.352,1.65C33.482,16.037,33.365,16.612,33.13,17.145z M15.375,11.979c-0.702-0.686-1.502-1.224-2.4-1.612
					c-0.897-0.387-1.828-0.582-2.79-0.582H7.532c-0.625,0-1.151-0.214-1.581-0.641C5.521,8.717,5.293,8.206,5.268,7.61
					c0.026-0.672,0.253-1.236,0.683-1.688c0.43-0.453,0.957-0.68,1.581-0.68h6.946c0.755,0,1.378-0.245,1.874-0.738
					c0.493-0.492,0.741-1.113,0.741-1.864c-0.053-0.75-0.325-1.378-0.819-1.883C15.778,0.251,15.18,0,14.478,0H7.532
					C6.491,0,5.515,0.213,4.605,0.64c-0.911,0.427-1.71,0.99-2.4,1.689c-0.689,0.699-1.229,1.502-1.62,2.408S0,6.575,0,7.533
					c0,1.061,0.208,2.046,0.625,2.952c0.416,0.907,0.969,1.689,1.659,2.349c0.689,0.66,1.489,1.185,2.4,1.573
					c0.91,0.387,1.86,0.596,2.849,0.621h2.692c0.597,0.024,1.125,0.251,1.58,0.679c0.455,0.428,0.683,0.964,0.683,1.611
					c0,0.621-0.234,1.152-0.702,1.592c-0.469,0.441-1.001,0.66-1.6,0.66H3.239c-0.755,0-1.386,0.259-1.893,0.776
					c-0.508,0.519-0.761,1.127-0.761,1.826c0,0.751,0.247,1.378,0.742,1.883c0.494,0.505,1.132,0.758,1.912,0.758h6.946
					c1.041-0.026,2.016-0.239,2.927-0.641c0.91-0.401,1.703-0.939,2.38-1.612c0.676-0.673,1.21-1.462,1.6-2.368
					c0.39-0.906,0.585-1.865,0.585-2.874c0-1.035-0.208-2.014-0.624-2.933C16.637,13.468,16.078,12.665,15.375,11.979z
					 M51.576,16.563v-2.875c-2.25,1.37-3.252,0.18-3.252,0.18v2.695c0,0.895,0.728,1.619,1.626,1.619S51.576,17.458,51.576,16.563z
					 M65.738,1.038l-3.554-1.004c-0.176-0.049-0.341-0.032-0.498,0.054c-0.156,0.086-0.258,0.215-0.31,0.39
					c-0.051,0.174-0.037,0.39,0.049,0.543l0.604,1.086L51.266,8.752c0,0-1.123,0.618-1.761,0.969l-0.605,0.333
					c-0.638,0.352-0.873,1.146-0.522,1.776c0.35,0.631,1.151,0.857,1.79,0.506l0.605-0.334c0.638-0.351,1.761-0.968,1.761-0.968
					L63.296,4.39L63.9,5.477c0.085,0.154,0.261,0.281,0.436,0.331c0.176,0.049,0.342,0.031,0.498-0.055
					c0.155-0.085,0.258-0.215,0.31-0.39l1.037-3.529c0.052-0.175,0.035-0.339-0.051-0.492C66.045,1.188,65.914,1.087,65.738,1.038z
					 M84.643,8.872c-0.873-0.867-1.879-1.56-3.024-2.078c-1.145-0.517-2.34-0.776-3.589-0.776c-1.275,0-2.485,0.258-3.63,0.776
					c-1.146,0.518-2.146,1.21-3.004,2.078c-0.858,0.868-1.542,1.87-2.049,3.009c-0.507,1.141-0.761,2.318-0.761,3.536
					c0,1.243,0.253,2.446,0.761,3.61c0.507,1.166,1.197,2.181,2.068,3.049c0.872,0.868,1.88,1.554,3.024,2.059
					c1.145,0.504,2.341,0.73,3.589,0.679c0.962-0.025,1.873-0.148,2.733-0.367c0.857-0.22,1.638-0.616,2.34-1.186
					c0.389-0.414,0.617-0.867,0.683-1.36c0.064-0.49,0-0.951-0.195-1.378c-0.196-0.428-0.496-0.782-0.899-1.068
					c-0.404-0.284-0.877-0.439-1.423-0.467c-0.288,0-0.54,0.039-0.761,0.117c-0.221,0.078-0.442,0.169-0.663,0.272
					c-0.223,0.104-0.475,0.193-0.761,0.271c-0.287,0.077-0.638,0.116-1.055,0.116c-1.508,0-2.692-0.738-3.55-2.213h10.38
					c0.754,0.025,1.385-0.156,1.894-0.545c0.507-0.388,0.761-0.919,0.761-1.591c0-1.244-0.262-2.428-0.782-3.553
					C86.209,10.737,85.515,9.74,84.643,8.872z M74.477,13.241c0.442-0.803,0.957-1.366,1.542-1.689
					c0.586-0.324,1.254-0.486,2.01-0.486c0.729,0,1.391,0.162,1.99,0.486c0.598,0.323,1.119,0.886,1.561,1.689H74.477z
					 M63.499,16.563V7.166c-0.611-0.336-1.084-0.849-1.084-0.849s-0.89,0.591-2.167,1.446v8.802c0,0.895,0.729,1.618,1.626,1.618
					C62.771,18.183,63.499,17.458,63.499,16.563z M57.537,16.563v-6.98c-1.106,0.747-2.248,1.523-3.252,2.217v4.764
					c0,0.895,0.729,1.619,1.627,1.619S57.537,17.458,57.537,16.563z M105.071,16.735c-0.286-0.62-0.683-1.21-1.188-1.767
					c-0.508-0.556-1.106-1.002-1.796-1.339c-0.689-0.336-1.438-0.505-2.244-0.505h-4.41c-0.313,0-0.578-0.098-0.8-0.291
					c-0.221-0.195-0.333-0.473-0.333-0.836c0-0.336,0.111-0.596,0.331-0.777c0.222-0.18,0.489-0.271,0.8-0.271h6.713
					c0.624,0,1.19-0.253,1.697-0.757c0.508-0.505,0.762-1.094,0.762-1.767c0-0.595-0.235-1.158-0.702-1.689
					c-0.469-0.529-1.054-0.796-1.757-0.796H95.2c-0.833,0.026-1.601,0.201-2.303,0.525c-0.703,0.324-1.315,0.757-1.834,1.3
					c-0.522,0.544-0.931,1.179-1.23,1.903c-0.299,0.725-0.448,1.475-0.448,2.252s0.142,1.501,0.429,2.175
					c0.286,0.674,0.683,1.295,1.19,1.863c0.507,0.57,1.105,1.016,1.794,1.34c0.689,0.324,1.425,0.485,2.206,0.485h4.292
					c0.702,0,1.054,0.351,1.054,1.048c0,0.621-0.352,0.932-1.054,0.932h-7.18c-0.678,0.026-1.249,0.305-1.717,0.836
					c-0.469,0.529-0.702,1.119-0.702,1.766c0,0.7,0.247,1.282,0.742,1.748c0.492,0.467,1.079,0.699,1.755,0.699h7.18
					c0.911,0,1.729-0.149,2.458-0.447c0.729-0.297,1.366-0.703,1.912-1.222c0.548-0.519,0.982-1.153,1.307-1.903
					c0.326-0.751,0.476-1.554,0.45-2.408C105.502,18.057,105.357,17.356,105.071,16.735z"/>
			</defs>
			<clipPath id="SVGID_4_">
				<use xlink:href="#SVGID_3_"  overflow="visible"/>
			</clipPath>
			<polygon clip-path="url(#SVGID_4_)" fill="#0E5FAA" points="46.155,-2.062 46.554,15.419 46.554,17.78 47.002,18.982 
				48.014,19.369 66.691,19.669 67.551,21.859 67.336,24.852 60.247,26.84 -15.963,32.422 -10.925,-9.142 			"/>
		</g>
		<g>
			<defs>
				<path id="SVGID_5_" d="M63.6,19.882c-0.037,0-13.629-0.002-15.593-0.003c-0.826-0.415-1.5-1.081-1.92-1.901V2.679
					c-0.053-0.725-0.319-1.333-0.8-1.826c-0.482-0.492-1.073-0.737-1.776-0.737c-0.702,0.026-1.288,0.271-1.756,0.737
					s-0.742,1.023-0.819,1.67v15.495c0,0.905,0.175,1.773,0.527,2.602s0.832,1.554,1.444,2.174c0.611,0.623,1.319,1.12,2.127,1.496
					c0.806,0.375,1.665,0.563,2.576,0.563h16.264c0.676-0.103,1.229-0.394,1.658-0.874c0.429-0.478,0.645-1.029,0.645-1.648
					c-0.026-0.7-0.292-1.283-0.8-1.749C64.867,20.114,64.275,19.882,63.6,19.882z M36.193,9.144
					c-0.741-0.841-1.626-1.534-2.653-2.078c-1.029-0.544-2.127-0.88-3.298-1.01c-0.182-0.025-0.358-0.039-0.527-0.039H29.15
					c-1.951,0-3.695,0.518-5.229,1.554c-1.536,1.035-2.68,2.395-3.434,4.078c-0.26,0.596-0.462,1.204-0.605,1.825
					c-0.143,0.621-0.215,1.269-0.215,1.941c0,0.672,0.071,1.319,0.215,1.94c0.143,0.622,0.345,1.23,0.605,1.826
					c0.754,1.657,1.898,3.01,3.434,4.058c1.534,1.048,3.278,1.572,5.229,1.572c0.754,0,1.469-0.078,2.146-0.232
					c0.65-0.156,1.288-0.375,1.912-0.661c0.104-0.052,0.208-0.109,0.313-0.175c0.104-0.064,0.221-0.123,0.351-0.174
					c0.546,0.827,1.274,1.242,2.186,1.242c0.649,0,1.235-0.245,1.755-0.738c0.521-0.489,0.781-1.087,0.781-1.786v-6.872
					c0-1.19-0.214-2.324-0.644-3.398C37.521,10.943,36.936,9.985,36.193,9.144z M33.13,17.145c-0.234,0.53-0.546,0.99-0.937,1.379
					c-0.391,0.387-0.853,0.692-1.385,0.911c-0.534,0.221-1.1,0.33-1.697,0.33c-0.546,0-1.08-0.117-1.6-0.349
					c-0.521-0.233-0.982-0.545-1.385-0.933c-0.404-0.388-0.729-0.847-0.976-1.379c-0.248-0.529-0.371-1.093-0.371-1.688
					c0-0.569,0.117-1.12,0.351-1.65s0.552-0.997,0.956-1.398c0.403-0.401,0.865-0.718,1.386-0.951c0.52-0.233,1.066-0.35,1.639-0.35
					c0.572,0,1.125,0.116,1.658,0.35c0.533,0.233,1.001,0.55,1.404,0.951c0.403,0.401,0.722,0.868,0.957,1.398
					s0.352,1.081,0.352,1.65C33.482,16.037,33.365,16.612,33.13,17.145z M15.375,11.979c-0.702-0.686-1.502-1.224-2.4-1.612
					c-0.897-0.387-1.828-0.582-2.79-0.582H7.532c-0.625,0-1.151-0.214-1.581-0.641C5.521,8.717,5.293,8.206,5.268,7.61
					c0.026-0.672,0.253-1.236,0.683-1.688c0.43-0.453,0.957-0.68,1.581-0.68h6.946c0.755,0,1.378-0.245,1.874-0.738
					c0.493-0.492,0.741-1.113,0.741-1.864c-0.053-0.75-0.325-1.378-0.819-1.883C15.778,0.251,15.18,0,14.478,0H7.532
					C6.491,0,5.515,0.213,4.605,0.64c-0.911,0.427-1.71,0.99-2.4,1.689c-0.689,0.699-1.229,1.502-1.62,2.408S0,6.575,0,7.533
					c0,1.061,0.208,2.046,0.625,2.952c0.416,0.907,0.969,1.689,1.659,2.349c0.689,0.66,1.489,1.185,2.4,1.573
					c0.91,0.387,1.86,0.596,2.849,0.621h2.692c0.597,0.024,1.125,0.251,1.58,0.679c0.455,0.428,0.683,0.964,0.683,1.611
					c0,0.621-0.234,1.152-0.702,1.592c-0.469,0.441-1.001,0.66-1.6,0.66H3.239c-0.755,0-1.386,0.259-1.893,0.776
					c-0.508,0.519-0.761,1.127-0.761,1.826c0,0.751,0.247,1.378,0.742,1.883c0.494,0.505,1.132,0.758,1.912,0.758h6.946
					c1.041-0.026,2.016-0.239,2.927-0.641c0.91-0.401,1.703-0.939,2.38-1.612c0.676-0.673,1.21-1.462,1.6-2.368
					c0.39-0.906,0.585-1.865,0.585-2.874c0-1.035-0.208-2.014-0.624-2.933C16.637,13.468,16.078,12.665,15.375,11.979z
					 M51.576,16.563v-2.875c-2.25,1.37-3.252,0.18-3.252,0.18v2.695c0,0.895,0.728,1.619,1.626,1.619S51.576,17.458,51.576,16.563z
					 M65.738,1.038l-3.554-1.004c-0.176-0.049-0.341-0.032-0.498,0.054c-0.156,0.086-0.258,0.215-0.31,0.39
					c-0.051,0.174-0.037,0.39,0.049,0.543l0.604,1.086L51.266,8.752c0,0-1.123,0.618-1.761,0.969l-0.605,0.333
					c-0.638,0.352-0.873,1.146-0.522,1.776c0.35,0.631,1.151,0.857,1.79,0.506l0.605-0.334c0.638-0.351,1.761-0.968,1.761-0.968
					L63.296,4.39L63.9,5.477c0.085,0.154,0.261,0.281,0.436,0.331c0.176,0.049,0.342,0.031,0.498-0.055
					c0.155-0.085,0.258-0.215,0.31-0.39l1.037-3.529c0.052-0.175,0.035-0.339-0.051-0.492C66.045,1.188,65.914,1.087,65.738,1.038z
					 M84.643,8.872c-0.873-0.867-1.879-1.56-3.024-2.078c-1.145-0.517-2.34-0.776-3.589-0.776c-1.275,0-2.485,0.258-3.63,0.776
					c-1.146,0.518-2.146,1.21-3.004,2.078c-0.858,0.868-1.542,1.87-2.049,3.009c-0.507,1.141-0.761,2.318-0.761,3.536
					c0,1.243,0.253,2.446,0.761,3.61c0.507,1.166,1.197,2.181,2.068,3.049c0.872,0.868,1.88,1.554,3.024,2.059
					c1.145,0.504,2.341,0.73,3.589,0.679c0.962-0.025,1.873-0.148,2.733-0.367c0.857-0.22,1.638-0.616,2.34-1.186
					c0.389-0.414,0.617-0.867,0.683-1.36c0.064-0.49,0-0.951-0.195-1.378c-0.196-0.428-0.496-0.782-0.899-1.068
					c-0.404-0.284-0.877-0.439-1.423-0.467c-0.288,0-0.54,0.039-0.761,0.117c-0.221,0.078-0.442,0.169-0.663,0.272
					c-0.223,0.104-0.475,0.193-0.761,0.271c-0.287,0.077-0.638,0.116-1.055,0.116c-1.508,0-2.692-0.738-3.55-2.213h10.38
					c0.754,0.025,1.385-0.156,1.894-0.545c0.507-0.388,0.761-0.919,0.761-1.591c0-1.244-0.262-2.428-0.782-3.553
					C86.209,10.737,85.515,9.74,84.643,8.872z M74.477,13.241c0.442-0.803,0.957-1.366,1.542-1.689
					c0.586-0.324,1.254-0.486,2.01-0.486c0.729,0,1.391,0.162,1.99,0.486c0.598,0.323,1.119,0.886,1.561,1.689H74.477z
					 M63.499,16.563V7.166c-0.611-0.336-1.084-0.849-1.084-0.849s-0.89,0.591-2.167,1.446v8.802c0,0.895,0.729,1.618,1.626,1.618
					C62.771,18.183,63.499,17.458,63.499,16.563z M57.537,16.563v-6.98c-1.106,0.747-2.248,1.523-3.252,2.217v4.764
					c0,0.895,0.729,1.619,1.627,1.619S57.537,17.458,57.537,16.563z M105.071,16.735c-0.286-0.62-0.683-1.21-1.188-1.767
					c-0.508-0.556-1.106-1.002-1.796-1.339c-0.689-0.336-1.438-0.505-2.244-0.505h-4.41c-0.313,0-0.578-0.098-0.8-0.291
					c-0.221-0.195-0.333-0.473-0.333-0.836c0-0.336,0.111-0.596,0.331-0.777c0.222-0.18,0.489-0.271,0.8-0.271h6.713
					c0.624,0,1.19-0.253,1.697-0.757c0.508-0.505,0.762-1.094,0.762-1.767c0-0.595-0.235-1.158-0.702-1.689
					c-0.469-0.529-1.054-0.796-1.757-0.796H95.2c-0.833,0.026-1.601,0.201-2.303,0.525c-0.703,0.324-1.315,0.757-1.834,1.3
					c-0.522,0.544-0.931,1.179-1.23,1.903c-0.299,0.725-0.448,1.475-0.448,2.252s0.142,1.501,0.429,2.175
					c0.286,0.674,0.683,1.295,1.19,1.863c0.507,0.57,1.105,1.016,1.794,1.34c0.689,0.324,1.425,0.485,2.206,0.485h4.292
					c0.702,0,1.054,0.351,1.054,1.048c0,0.621-0.352,0.932-1.054,0.932h-7.18c-0.678,0.026-1.249,0.305-1.717,0.836
					c-0.469,0.529-0.702,1.119-0.702,1.766c0,0.7,0.247,1.282,0.742,1.748c0.492,0.467,1.079,0.699,1.755,0.699h7.18
					c0.911,0,1.729-0.149,2.458-0.447c0.729-0.297,1.366-0.703,1.912-1.222c0.548-0.519,0.982-1.153,1.307-1.903
					c0.326-0.751,0.476-1.554,0.45-2.408C105.502,18.057,105.357,17.356,105.071,16.735z"/>
			</defs>
			<clipPath id="SVGID_6_">
				<use xlink:href="#SVGID_5_"  overflow="visible"/>
			</clipPath>
			<polygon clip-path="url(#SVGID_6_)" fill="#0E5FAA" points="68.081,-1.12 68.081,10.151 67.551,16.221 68.081,21.945 
				71.114,25.953 89.384,27.499 104.491,28.758 106.381,22.175 107.01,10.266 105.064,2.594 			"/>
		</g>
	</g>
</g>
<g id="Layer_2">
	<path fill="#1785EB" d="M126.145,5.803c-0.495-1.151-1.172-2.155-2.029-3.01c-0.858-0.854-1.867-1.527-3.024-2.019
		c-1.159-0.491-2.388-0.738-3.687-0.738h-6.83c-0.729,0-1.346,0.253-1.854,0.757c-0.507,0.505-0.761,1.12-0.761,1.845v19.689
		c0,0.725,0.254,1.34,0.761,1.846c0.508,0.504,1.125,0.757,1.854,0.757s1.346-0.253,1.853-0.757
		c0.509-0.506,0.763-1.121,0.763-1.846v-3.418h4.215c1.3,0,2.529-0.245,3.687-0.737s2.166-1.165,3.024-2.02
		c0.857-0.854,1.534-1.856,2.029-3.01c0.493-1.151,0.742-2.375,0.742-3.669C126.887,8.179,126.637,6.956,126.145,5.803z
		 M121.324,11.124c-0.221,0.504-0.527,0.951-0.917,1.339c-0.391,0.389-0.846,0.693-1.366,0.913c-0.521,0.222-1.065,0.33-1.639,0.33
		h-4.213V5.241h4.213c0.573,0,1.118,0.11,1.639,0.33c0.521,0.22,0.976,0.524,1.366,0.913c0.39,0.388,0.696,0.841,0.917,1.359
		c0.221,0.519,0.332,1.062,0.332,1.631C121.656,10.069,121.545,10.619,121.324,11.124z"/>
	<path fill="#1785EB" d="M138.3,6.134c-0.171,0-0.358,0-0.566,0c-1.952,0-3.694,0.518-5.23,1.553
		c-1.533,1.035-2.678,2.395-3.432,4.078c-0.262,0.596-0.464,1.204-0.605,1.825c-0.144,0.621-0.215,1.27-0.215,1.941
		s0.071,1.319,0.215,1.94c0.142,0.622,0.344,1.23,0.605,1.826c0.754,1.657,1.898,3.01,3.432,4.058
		c1.536,1.049,3.278,1.572,5.23,1.572c0.756,0,1.47-0.078,2.147-0.232c0.649-0.156,1.286-0.375,1.91-0.661
		c0.104-0.052,0.209-0.109,0.313-0.175c0.104-0.064,0.221-0.123,0.352-0.174c0.546,0.828,1.273,1.242,2.187,1.242
		c0.649,0,1.234-0.245,1.756-0.738c0.52-0.489,0.781-1.086,0.781-1.785v-6.873c0-1.19-0.216-2.323-0.646-3.398
		c-0.428-1.074-1.014-2.032-1.755-2.874c-0.742-0.841-1.627-1.534-2.654-2.078c-1.026-0.544-2.126-0.88-3.298-1.01
		C138.644,6.146,138.469,6.134,138.3,6.134z M136.095,19.531c-0.521-0.233-0.983-0.545-1.386-0.933
		c-0.403-0.388-0.729-0.847-0.976-1.379c-0.247-0.529-0.371-1.093-0.371-1.688c0-0.569,0.116-1.12,0.353-1.65
		c0.233-0.529,0.552-0.997,0.955-1.398c0.402-0.401,0.865-0.718,1.385-0.951c0.522-0.233,1.068-0.35,1.642-0.35
		c0.571,0,1.124,0.116,1.658,0.35c0.531,0.233,1,0.55,1.403,0.951c0.404,0.401,0.724,0.869,0.957,1.398
		c0.233,0.53,0.352,1.081,0.352,1.65c0,0.621-0.118,1.197-0.352,1.729c-0.233,0.53-0.546,0.99-0.937,1.379
		c-0.39,0.388-0.851,0.692-1.387,0.911c-0.532,0.221-1.099,0.33-1.695,0.33C137.147,19.88,136.614,19.764,136.095,19.531z"/>
	<path fill="#1785EB" d="M150.337,0.969c-0.468,0.466-0.74,1.023-0.818,1.669v15.495c0,0.906,0.176,1.774,0.527,2.602
		c0.351,0.828,0.832,1.554,1.443,2.174c0.611,0.623,1.32,1.121,2.127,1.496s1.665,0.563,2.576,0.563h0.547
		c0.676-0.103,1.228-0.394,1.658-0.873c0.43-0.479,0.644-1.029,0.644-1.649c-0.025-0.7-0.292-1.283-0.801-1.748
		c-0.506-0.467-1.099-0.699-1.775-0.699c-0.521,0-0.95-0.182-1.288-0.544c-0.337-0.362-0.506-0.802-0.506-1.32V2.794
		c-0.052-0.725-0.319-1.333-0.8-1.825c-0.481-0.492-1.074-0.738-1.776-0.738C151.392,0.257,150.807,0.502,150.337,0.969z"/>
</g>
</svg>
