<?xml version="1.0" encoding="utf-8"?>
<!-- Generator: Adobe Illustrator 16.0.0, SVG Export Plug-In . SVG Version: 6.00 Build 0)  -->
<!DOCTYPE svg PUBLIC "-//W3C//DTD SVG 1.1//EN" "http://www.w3.org/Graphics/SVG/1.1/DTD/svg11.dtd">
<svg version="1.1" id="Layer_1" xmlns="http://www.w3.org/2000/svg" xmlns:xlink="http://www.w3.org/1999/xlink" x="0px" y="0px"
	 width="10px" height="10px" viewBox="0 0 10 10" enable-background="new 0 0 10 10" xml:space="preserve">
<path fill="#373737" d="M6.544,5l3.384-3.391c0.081-0.082,0.081-0.213,0-0.295l-1.25-1.253C8.639,0.022,8.586,0,8.53,0
	C8.476,0,8.423,0.022,8.384,0.062L5,3.453L1.617,0.062c-0.078-0.078-0.217-0.078-0.295,0l-1.25,1.253
	c-0.081,0.082-0.081,0.213,0,0.295L3.456,5L0.072,8.391c-0.081,0.082-0.081,0.214,0,0.295l1.25,1.254C1.361,9.979,1.415,10,1.47,10
	s0.108-0.021,0.147-0.061L5,6.548l3.384,3.392C8.423,9.979,8.476,10,8.53,10c0.056,0,0.108-0.021,0.147-0.061l1.25-1.254
	c0.081-0.081,0.081-0.213,0-0.295L6.544,5z"/>
</svg>
