<?xml version="1.0" encoding="utf-8"?>
<!-- Generator: Adobe Illustrator 16.0.0, SVG Export Plug-In . SVG Version: 6.00 Build 0)  -->
<!DOCTYPE svg PUBLIC "-//W3C//DTD SVG 1.1//EN" "http://www.w3.org/Graphics/SVG/1.1/DTD/svg11.dtd">
<svg version="1.1" id="Layer_1" xmlns="http://www.w3.org/2000/svg" xmlns:xlink="http://www.w3.org/1999/xlink" x="0px" y="0px"
	 width="65px" height="22px" viewBox="0 0 65 22" enable-background="new 0 0 65 22" xml:space="preserve">
<g>
	<g>
		<path fill="#373737" d="M14.503,8.047H13.97v2.283h0.506c0.943,0,1.415-0.417,1.415-1.251C15.891,8.391,15.428,8.047,14.503,8.047
			z M40.353,8.047h-0.533v2.283h0.507c0.942,0,1.414-0.417,1.414-1.251C41.74,8.391,41.277,8.047,40.353,8.047z M61,0H4
			C1.791,0,0,1.791,0,4v14c0,2.209,1.791,4,4,4h57c2.209,0,4-1.791,4-4V4C65,1.791,63.209,0,61,0z M16.772,15.997l-2.119-3.637
			H13.97v3.637h-2.7V6.003h3.274c2.716,0,4.074,0.984,4.074,2.953c0,1.157-0.565,2.053-1.695,2.687l2.912,4.354H16.772z
			 M26.818,8.17h-3.233v1.572h2.994v2.167h-2.994v1.887h3.233v2.201h-5.934V6.003h5.934V8.17z M35.551,8.211h-2.434v7.786h-2.7
			V8.211h-2.44V6.003h7.574V8.211z M42.622,15.997l-2.119-3.637h-0.684v3.637h-2.7V6.003h3.274c2.716,0,4.074,0.984,4.074,2.953
			c0,1.157-0.565,2.053-1.695,2.687l2.912,4.354H42.622z M51.662,12.094v3.903h-2.721v-3.821l-3.287-6.173h2.939l1.709,3.705
			l1.723-3.705h2.926L51.662,12.094z"/>
	</g>
</g>
</svg>
