<?xml version="1.0" encoding="utf-8"?>
<!-- Generator: Adobe Illustrator 16.0.0, SVG Export Plug-In . SVG Version: 6.00 Build 0)  -->
<!DOCTYPE svg PUBLIC "-//W3C//DTD SVG 1.1//EN" "http://www.w3.org/Graphics/SVG/1.1/DTD/svg11.dtd">
<svg version="1.1" id="Layer_1" xmlns="http://www.w3.org/2000/svg" xmlns:xlink="http://www.w3.org/1999/xlink" x="0px" y="0px"
	 width="65px" height="22px" viewBox="0 0 65 22" enable-background="new 0 0 65 22" xml:space="preserve">
<g>
	<g>
		<path fill="#01A8FE" d="M61,0H4C1.791,0,0,1.791,0,4v14c0,2.209,1.791,4,4,4h57c2.209,0,4-1.791,4-4V4C65,1.791,63.209,0,61,0z
			 M14.365,15.997h-3.179L7.925,6.003h3.035l1.36,5.065c0.283,1.125,0.438,1.91,0.465,2.352c0.032-0.319,0.096-0.718,0.191-1.196
			s0.18-0.854,0.253-1.128l1.388-5.093h3.021L14.365,15.997z M24.793,8.17H21.56v1.572h2.994v2.167H21.56v1.887h3.233v2.201h-5.934
			V6.003h5.934V8.17z M32.186,15.997l-2.119-3.637h-0.684v3.637h-2.7V6.003h3.274c2.716,0,4.074,0.984,4.074,2.953
			c0,1.157-0.564,2.053-1.695,2.687l2.912,4.354H32.186z M39.012,15.997h-2.714V6.003h2.714V15.997z M47.218,8.17h-3.247v1.907
			h2.994v2.167h-2.994v3.753h-2.659V6.003h5.906V8.17z M53.928,12.094v3.903h-2.721v-3.821l-3.289-6.173h2.939l1.709,3.705
			l1.723-3.705h2.926L53.928,12.094z M29.917,8.047h-0.533v2.283h0.506c0.943,0,1.415-0.417,1.415-1.251
			C31.304,8.391,30.841,8.047,29.917,8.047z"/>
	</g>
</g>
</svg>
